<svg enable-background="new 0 0 230 95" viewBox="0 0 230 95" xmlns="http://www.w3.org/2000/svg" xmlns:xlink="http://www.w3.org/1999/xlink"><linearGradient id="a"><stop offset="0" stop-color="#2bdbdc"/><stop offset="1" stop-color="#0067f4"/></linearGradient><linearGradient id="b" gradientTransform="matrix(1 0 0 -1 0 96)" gradientUnits="userSpaceOnUse" x1="48.7162" x2="48.7162" xlink:href="#a" y1="81.4069" y2="37.5342"/><linearGradient id="c" gradientTransform="matrix(1 0 0 -1 0 96)" gradientUnits="userSpaceOnUse" x1="26.7706" x2="26.7706" xlink:href="#a" y1="59.4752" y2="15.5931"/><linearGradient id="d" gradientTransform="matrix(1 0 0 -1 0 96)" gradientUnits="userSpaceOnUse" x1="37.7411" x2="37.7411" xlink:href="#a" y1="37.5342" y2="15.5931"/><linearGradient id="e" gradientTransform="matrix(1 0 0 -1 0 96)" gradientUnits="userSpaceOnUse" x1="15.8" x2="15.8" xlink:href="#a" y1="59.4752" y2="37.5342"/><path d="m48.7 58.5v-16.1c0-1.6-.6-3-1.7-4.1s-2.6-1.7-4.1-1.7h-16.1c0-5.1 1.8-10 5-13.9s7.7-6.6 12.6-7.6c5-1 10.1-.3 14.6 2.1s8 6.2 10 10.9c1.4 3.3 2 7 1.6 10.6-.3 3.6-1.6 7.1-3.6 10.1s-4.7 5.5-7.9 7.2-6.8 2.5-10.4 2.5z" fill="url(#b)"/><path d="m42.9 36.5h-32.2c-3.2 0-5.9 2.6-5.9 5.9v32.2c0 3.2 2.6 5.9 5.9 5.9h32.2c3.2 0 5.9-2.6 5.9-5.9v-32.2c-.1-3.3-2.7-5.9-5.9-5.9z" fill="url(#c)"/><path d="m26.8 80.4c0-5.8 2.3-11.4 6.4-15.5s9.7-6.4 15.5-6.4v16.1c0 1.6-.6 3-1.7 4.1s-2.6 1.7-4.1 1.7z" fill="url(#d)"/><path d="m4.8 58.5v-16.1c0-1.6.6-3 1.7-4.1s2.6-1.7 4.1-1.7h16.1c0 5.8-2.3 11.4-6.4 15.5s-9.7 6.4-15.5 6.4z" fill="url(#e)"/><path d="m98.7 68.1h7.6l-10.7-29.5h-8.3l-10.7 29.5h7.5l1.8-5.2h11zm-3.6-10.8h-7.3l3.6-10.8zm25.3 2-5.4-14.7h-8l9.6 22.7-5.4 12h7.8l14.7-34.7h-7.8zm23-2.1c0-4 2-5.2 5.4-5.2h2v-7.6c-3.2 0-5.7 1.7-7.4 4.2v-3.9h-7.2v23.5h7.2zm33.8-.8c0-7.5-5.3-12.1-12.2-12.1s-12.2 4.6-12.2 12.1 5.2 12.1 12.1 12.1 12.3-4.7 12.3-12.1zm-17.1 0c0-4 2.3-5.9 4.9-5.9 2.5 0 4.9 1.9 4.9 5.9s-2.4 5.9-5 5.9c-2.6-.1-4.8-2-4.8-5.9zm32.7.9c0 7.6 5 11.1 11 11.1 6.1 0 11.1-3.5 11.1-11.1v-18.5h-3.8v18.6c0 5.4-2.9 7.7-7.2 7.7s-7.2-2.3-7.2-7.7v-18.6h-3.8v18.5zm28.5 10.8h3.8v-29.3h-3.8z"/></svg>