<svg enable-background="new 0 0 231 95" viewBox="0 0 231 95" xmlns="http://www.w3.org/2000/svg" xmlns:xlink="http://www.w3.org/1999/xlink"><linearGradient id="a"><stop offset="0" stop-color="#3e00b4"/><stop offset="1" stop-color="#1c0043"/></linearGradient><linearGradient id="b" gradientUnits="userSpaceOnUse" x1="90.219" x2="96.1408" xlink:href="#a" y1="43.948" y2="43.948"/><linearGradient id="c" gradientUnits="userSpaceOnUse" x1="17.0566" x2="113.834" xlink:href="#a" y1="47.5" y2="47.5"/><linearGradient id="d" gradientUnits="userSpaceOnUse" x1="14.9849" x2="24.8705" xlink:href="#a" y1="27.9183" y2="27.9183"/><linearGradient id="e" gradientUnits="userSpaceOnUse" x1=".354" x2="10.2398" xlink:href="#a" y1="47.2944" y2="47.2944"/><linearGradient id="f" gradientUnits="userSpaceOnUse" x1="13.4031" x2="23.2889" xlink:href="#a" y1="66.275" y2="66.275"/><path d="m-48.9-177.8h-.1-2 .1z" fill="#0d2493"/><path d="m95.5 42.1c.4.5.6 1.1.6 1.9s-.2 1.5-.7 1.9-1.1.6-1.9.6h-3.3v-5.1h3.3c.9 0 1.6.2 2 .7z" fill="url(#b)"/><path d="m80.6 14.3c-6 0-11.6 1.6-16.5 4.4-7.8 3.3-14.2 4.3-18 4.6h-11.8c-2.6 0-4.8 2.1-4.8 4.8s2.2 4.8 4.8 4.8h8.9c2.5.1 4.5 2.2 4.5 4.8s-2 4.6-4.5 4.8h-21.3c-2.6 0-4.8 2.2-4.8 4.8 0 2.7 2.2 4.8 4.8 4.8h16.6c2.7 0 4.8 2.2 4.8 4.8 0 2.5-1.9 4.6-4.3 4.8h-7c-.2 0-.3 0-.5 0-2.4.2-4.3 2.3-4.3 4.8 0 2.6 2.2 4.8 4.8 4.8h17.8c3 .3 7.4 1.2 12.1 3.6 5.4 3.7 11.8 5.9 18.8 5.9 18.4 0 33.2-14.9 33.2-33.2-.1-18.5-14.9-33.3-33.3-33.3zm1 23.6-3.2 18.9c0 .3-.2.5-.4.7s-.5.3-.8.3h-3c-.3 0-.6-.1-.7-.2-.2-.2-.3-.3-.4-.5l-2.9-8.2-2.9 8.2c-.1.2-.2.4-.4.5-.2.2-.4.2-.7.2h-3c-.3 0-.6-.1-.8-.3s-.3-.4-.4-.7l-3.2-18.9s0-.1 0-.2c0-.2.1-.3.2-.4s.3-.2.4-.2h3.9c.6 0 .9.2.9.7l1.9 11.2 2-6.5c.2-.5.5-.8 1-.8h2.2c.5 0 .8.3 1 .8l2 6.5 1.8-11.2c0-.2.1-.4.3-.5.1-.1.4-.2.6-.2h4c.2 0 .3.1.4.2s.2.3.2.4zm18.1 11.2c-1.5 1.1-3.5 1.7-6 1.7h-3.4v6.4c0 .2-.1.4-.2.5s-.3.2-.5.2h-4.3c-.2 0-.4-.1-.5-.2s-.2-.3-.2-.5v-19.3c0-.2.1-.4.2-.5s.3-.2.5-.2h8.4c2.6 0 4.6.6 6 1.7 1.5 1.2 2.2 2.9 2.2 5.1s-.7 3.9-2.2 5.1z" fill="url(#c)"/><circle cx="19.9" cy="27.9" fill="url(#d)" r="4.9"/><circle cx="5.3" cy="47.3" fill="url(#e)" r="4.9"/><circle cx="18.3" cy="66.3" fill="url(#f)" r="4.9"/><g fill="#3e00b4"><path d="m126.4 44.8c-.1-.1-.2-.3-.2-.5v-13.7h-4.7c-.2 0-.4-.1-.5-.2s-.2-.3-.2-.5v-3c0-.2.1-.4.2-.5s.3-.2.5-.2h14.5c.2 0 .4.1.5.2s.2.3.2.5v3c0 .2-.1.4-.2.5s-.3.2-.5.2h-4.7v13.7c0 .2-.1.4-.2.5s-.3.2-.5.2h-3.7c-.2 0-.4-.1-.5-.2z"/><path d="m139.2 44.8c-.1-.1-.2-.3-.2-.5v-17.3c0-.2.1-.4.2-.5s.3-.2.5-.2h3.7c.2 0 .4.1.5.2s.2.3.2.5v6.3h6.3v-6.3c0-.2.1-.4.2-.5s.3-.2.5-.2h3.6c.2 0 .4.1.5.2s.2.3.2.5v17.3c0 .2-.1.4-.2.5s-.3.2-.5.2h-3.7c-.2 0-.4-.1-.5-.2s-.2-.3-.2-.5v-6.5h-6.3v6.5c0 .2-.1.4-.2.5s-.3.2-.5.2h-3.7c-.1 0-.3-.1-.4-.2z"/><path d="m159.2 44.8c-.1-.1-.2-.3-.2-.5v-17.3c0-.2.1-.4.2-.5s.3-.2.5-.2h12.6c.2 0 .4.1.5.2s.2.3.2.5v2.6c0 .2-.1.4-.2.5s-.3.2-.5.2h-8.4v3.4h7.8c.2 0 .4.1.5.2s.2.3.2.5v2.4c0 .2-.1.4-.2.5s-.3.2-.5.2h-7.8v3.5h8.6c.2 0 .4.1.5.2s.2.3.2.5v2.6c0 .2-.1.4-.2.5s-.3.2-.5.2h-12.8c-.2 0-.4-.1-.5-.2z"/><path d="m176.3 44.8c-.1-.1-.2-.3-.2-.5v-17.3c0-.2.1-.4.2-.5s.3-.2.5-.2h3c.4 0 .8.2 1 .6l4.6 8.2 4.6-8.2c.2-.4.5-.6 1-.6h3c.2 0 .4.1.5.2s.2.3.2.5v17.3c0 .2-.1.4-.2.5s-.3.2-.5.2h-3.4c-.2 0-.3-.1-.5-.2-.1-.1-.2-.3-.2-.5v-9.7l-2.9 5.3c-.2.4-.5.6-.9.6h-1.4c-.4 0-.7-.2-.9-.6l-2.9-5.3v9.7c0 .2-.1.4-.2.5s-.3.2-.5.2h-3.4c-.2 0-.3-.1-.5-.2z"/><path d="m198.5 44.8c-.1-.1-.2-.3-.2-.5v-17.3c0-.2.1-.4.2-.5s.3-.2.5-.2h12.6c.2 0 .4.1.5.2s.2.3.2.5v2.6c0 .2-.1.4-.2.5s-.3.2-.5.2h-8.4v3.4h7.8c.2 0 .4.1.5.2s.2.3.2.5v2.4c0 .2-.1.4-.2.5s-.3.2-.5.2h-7.8v3.5h8.6c.2 0 .4.1.5.2s.2.3.2.5v2.6c0 .2-.1.4-.2.5s-.3.2-.5.2h-12.8c-.2 0-.4-.1-.5-.2z"/><path d="m218.1 44.5c-1.2-.5-2.1-1.2-2.7-2s-1-1.7-1-2.7c0-.2.1-.3.2-.4s.3-.2.4-.2h3.5c.2 0 .4 0 .5.1s.3.2.4.4c.2.4.6.8 1.1 1.1s1.1.4 2 .4c1 0 1.7-.1 2.2-.4s.8-.7.8-1.2c0-.4-.1-.7-.4-.9s-.7-.5-1.3-.6c-.6-.2-1.4-.4-2.5-.6-2.2-.4-3.8-1.1-4.8-1.9-1.1-.9-1.6-2.1-1.6-3.7 0-1.1.3-2.1.9-2.9.6-.9 1.5-1.5 2.6-2s2.4-.7 3.9-.7c1.6 0 2.9.3 4.1.8 1.1.5 2 1.2 2.6 2s.9 1.6 1 2.4c0 .2-.1.3-.2.4s-.2.2-.4.2h-3.7c-.4 0-.7-.2-.9-.5-.1-.4-.4-.7-.8-.9-.4-.3-1-.4-1.7-.4s-1.3.1-1.7.4-.6.7-.6 1.2.3.9.8 1.2 1.5.6 3 .9c1.7.3 3 .7 4 1.1 1 .5 1.7 1 2.2 1.8.5.7.7 1.6.7 2.7 0 1.2-.3 2.3-1 3.1-.7.9-1.7 1.6-2.9 2-1.2.5-2.6.7-4.2.7-1.8-.2-3.3-.4-4.5-.9z"/><path d="m123 67.1c-1.5-1.3-2.2-3-2.3-5.4 0-.5 0-1.3 0-2.4s0-1.9 0-2.5c.1-2.2.8-4 2.3-5.2s3.5-1.9 6-1.9c1.7 0 3.2.3 4.5.8 1.3.6 2.2 1.3 2.9 2.1.7.9 1 1.7 1.1 2.7 0 .2-.1.3-.2.4s-.3.2-.4.2h-4.1c-.2 0-.3 0-.4-.1s-.2-.2-.3-.3c-.2-.5-.6-.9-1-1.3-.5-.4-1.1-.5-2-.5-2.1 0-3.1 1.1-3.2 3.2v2.3 2.3c.1 2.3 1.2 3.4 3.3 3.4 1 0 1.9-.3 2.5-.8s.9-1.3.9-2.3v-.5h-2.4c-.2 0-.4-.1-.5-.2s-.2-.3-.2-.5v-2.1c0-.2.1-.4.2-.5s.3-.2.5-.2h6.8c.2 0 .4.1.5.2s.2.3.2.5v3.1c0 1.5-.4 2.8-1.1 3.9s-1.7 1.9-3 2.5-2.8.9-4.5.9c-2.6.1-4.6-.5-6.1-1.8z"/><path d="m140.8 68.5c-.1-.1-.2-.3-.2-.5v-17.3c0-.2.1-.4.2-.5s.3-.2.5-.2h7.3c2.3 0 4.2.5 5.5 1.6s2 2.6 2 4.5c0 1.2-.3 2.3-.9 3.2s-1.4 1.5-2.4 2l3.6 6.5c.1.1.1.2.1.3s-.1.3-.2.4-.2.2-.4.2h-3.8c-.5 0-.9-.2-1.1-.7l-2.9-5.8h-2.6v5.8c0 .2-.1.4-.2.5s-.3.2-.5.2h-3.7s-.2 0-.3-.2zm7.7-10.2c.8 0 1.3-.2 1.7-.6s.6-.9.6-1.6-.2-1.2-.6-1.6-1-.6-1.7-.6h-3v4.4z"/><path d="m159.3 68.5c-.1-.1-.2-.3-.2-.5v-17.3c0-.2.1-.4.2-.5s.3-.2.5-.2h3.8c.2 0 .4.1.5.2s.2.3.2.5v17.3c0 .2-.1.3-.2.5-.1.1-.3.2-.5.2h-3.8c-.2 0-.4 0-.5-.2z"/><path d="m168.1 68.5c-.1-.1-.2-.3-.2-.5v-17.3c0-.2.1-.4.2-.5s.3-.2.5-.2h7c2.6 0 4.7.6 6.1 1.9 1.5 1.3 2.2 3.1 2.3 5.4v2.1 2c-.2 4.9-2.9 7.3-8.3 7.3h-7.2c-.1 0-.3 0-.4-.2zm7.5-3.8c1.1 0 1.9-.3 2.5-.8.5-.5.8-1.4.9-2.6 0-.5.1-1.2.1-2s0-1.5-.1-2c0-1.1-.3-2-.9-2.5s-1.4-.8-2.5-.8h-2.5v10.7z"/></g></svg>