<svg fill="none" height="40" viewBox="0 0 172 40" width="172" xmlns="http://www.w3.org/2000/svg"><g fill="#070707"><path d="m64.9559 27.3992h-2.7848v-15.2447h5.7189c.6907-.0104 1.3753.1312 2.0052.4148.5791.2625 1.1006.637 1.5347 1.1018.4236.4528.7589.9808.9886 1.557.4019.9873.4637 2.0805.1755 3.1069-.1179.4236-.2953.8282-.5267 1.202-.4936.79-1.197 1.4271-2.0316 1.8399.7445 1.0157 1.4849 2.0215 2.2212 3.0173s1.4808 1.9975 2.2335 3.005h-2.1878c-.1796-.0042-.3574-.0369-.5268-.0966-.2198-.0724-.4289-.1741-.6216-.3023-.2393-.1547-.4638-.3312-.6707-.5272-.2516-.2465-.4775-.518-.6743-.8101l-2.7743-3.7448h-2.079zm3.0201-8.2875c.2662-.0015.5287-.0615.7691-.1757.2411-.1093.4583-.2652.6392-.4587.1826-.1933.3283-.4184.4302-.6642.1051-.2467.1595-.5121.1597-.7803.0003-.2728-.054-.5428-.1597-.7943-.1027-.2453-.2484-.4703-.4302-.6642-.1814-.1925-.3985-.3477-.6392-.4569-.2401-.115-.5028-.1751-.7691-.1758h-3.0201v4.1596z"/><path d="m81.9286 12.154h2.5247l6.6682 15.2451h-1.7365c-.3839.0034-.7606-.1033-1.0856-.3075-.3253-.2038-.5816-.5009-.7354-.8523l-.9061-2.0632h-6.9339l-.8938 2.0632c-.0732.1717-.1743.3302-.2991.4692-.1279.1413-.2747.2643-.4363.3655-.1637.1043-.3414.1848-.5278.239-.1846.0572-.3768.0862-.5701.0861h-1.7365zm-.9695 9.2227h4.4637l-1.9917-4.6166c-.0849-.1871-.1475-.3836-.1865-.5852-.0317-.1758-.0528-.3129-.0598-.4042-.013.1376-.0342.2743-.0633.4094-.0395.1986-.0985.3929-.176.58z"/><path d="m99.1377 27.3992h-2.8014v-6.4581c.0038-.2114-.0471-.4202-.1476-.6062-.12-.2092-.2515-.4116-.3937-.6063l-5.5974-7.574h2.1388c.4292-.0092.8542.0855 1.239.2759.3599.1853.6662.46.8893.7978l3.0105 4.0752c.0883.1181.1538.2516.1933.3936.0351.1336.0545.2197.0615.2549.0132-.0847.0332-.1681.0598-.2496.0424-.1452.1128-.2807.2073-.3989l2.9999-4.0646c.218-.3459.525-.6269.889-.8137.386-.1869.811-.2797 1.239-.2706h2.164l-5.6118 7.5845c-.0843.1143-.1599.2179-.2214.3146-.0635.0905-.1222.1844-.1757.2812-.0487.0911-.0859.1879-.1108.2882-.0261.1039-.0385.2108-.0369.318z"/><path d="m120.688 20.0815v5.8569c-.345.3176-.734.5844-1.155.7924-.431.2122-.883.3797-1.349.4996-.489.1244-.987.2094-1.49.2542-.512.0456-1.034.0684-1.561.0684-1.05.0074-2.089-.2009-3.053-.6118-.93-.393-1.777-.9583-2.494-1.6654-.714-.7076-1.285-1.5451-1.68-2.4665-.406-.9595-.615-1.9896-.615-3.0302 0-1.0405.209-2.0706.615-3.0301.397-.9245.97-1.7643 1.687-2.4735.718-.7067 1.564-1.2718 2.494-1.6654 1.932-.8024 4.105-.8137 6.045-.0316.914.3784 1.747.9237 2.457 1.6076l-.106.0964c-.125.1257-.272.2279-.433.3015-.165.0687-.342.1027-.52.0999-.246.0017-.486-.0725-.687-.2121-.53-.3611-1.11-.6451-1.722-.8432-.64-.2042-1.309-.306-1.981-.3015-.585-.0023-1.166.0743-1.73.2279-.544.147-1.066.3663-1.551.6521-.48.281-.923.6195-1.319 1.008-.396.3893-.737.8284-1.017 1.306-.284.4853-.505 1.0042-.658 1.5444-.159.5573-.238 1.1338-.236 1.7128-.002.5799.079 1.1572.241 1.7144.316 1.0816.91 2.0633 1.724 2.8487.404.3903.855.7295 1.343 1.0098.496.2846 1.028.5038 1.581.6521.566.1532 1.151.2299 1.739.2279.727.0024 1.452-.0955 2.152-.291.696-.197 1.359-.4922 1.97-.8765v-3.6569h-1.36c-.175.0031-.348-.0298-.509-.0965-.162-.0666-.307-.1657-.428-.2909-.111-.1187-.198-.2574-.257-.4084-.06-.1562-.09-.322-.09-.4891v-.0421z"/><path d="m126.502 27.3992h-1.348v-15.2451h5.41c.582-.0046 1.158.1091 1.694.3339.512.2164.978.5271 1.372.9156.395.3891.71.8498.928 1.3567.228.524.343 1.0888.34 1.6589.001.5191-.091 1.0342-.271 1.5219-.172.4771-.423.923-.742 1.3198-.317.389-.704.7157-1.143.963-.447.2521-.943.4095-1.455.4622l5.108 6.7131h-.635c-.739 0-1.288-.2706-1.638-.8066l-4.496-5.9065h-3.124zm0-13.9165v5.8731h4.062c.398.0025.793-.0752 1.159-.2285.355-.1476.677-.3612.949-.6291.272-.2689.489-.5862.641-.9349.159-.3609.24-.7506.237-1.1441.003-.3912-.078-.7786-.237-1.137-.308-.7032-.876-1.2635-1.59-1.5658-.365-.1566-.76-.2362-1.159-.2337z"/><path d="m141.169 27.3992h-1.232v-15.2452h1.232z"/><path d="m146.405 27.3991v-15.245h5.609c1.352-.0054 2.68.3547 3.844 1.0421 1.131.6671 2.074 1.6097 2.742 2.7397.686 1.1657 1.048 2.4935 1.048 3.846 0 1.3524-.362 2.6803-1.048 3.846-.333.5622-.735 1.0806-1.197 1.5429-.932.9326-2.091 1.6067-3.362 1.956-.66.1836-1.342.2752-2.027.2723zm5.609-1.3303c.845.0068 1.683-.1613 2.461-.4938.745-.3187 1.424-.7754 2-1.3461.576-.573 1.035-1.2522 1.352-1.9999.326-.7747.494-1.6067.494-2.4471 0-.8405-.168-1.6725-.494-2.4471-.318-.7489-.777-1.4297-1.352-2.0052-.575-.5729-1.254-1.0315-2-1.3514-.778-.3331-1.615-.5018-2.461-.4956h-4.279v12.5862z"/><path d="m169.302 14.1672c-.164-.1123-.309-.2193-.432-.3176-.258-.2061-.559-.3513-.882-.4246-.232-.0471-.469-.0683-.706-.0631-.4-.0023-.799.0679-1.174.207-.355.1301-.686.3187-.978.558-.274.2258-.501.5038-.666.8176-.162.3042-.247.6435-.246.9878-.01.3326.042.6643.156.9773.113.2671.296.4995.529.6738.297.2248.624.4073.972.5422.402.1661.899.352 1.49.5579.314.117.608.2234.882.3194.27.0982.53.2.769.3017.232.0974.458.207.678.3281.21.1182.412.2514.603.3983.481.3569.849.8443 1.058 1.4037.208.5835.311 1.1988.304 1.8177.01.6207-.126 1.2352-.395 1.795-.256.5215-.619.9832-1.067 1.3545-.466.3815-1.001.6715-1.576.8545-.624.2025-1.278.3026-1.935.2965-1.331 0-2.452-.393-3.364-1.1791-.229-.2074-.441-.4327-.635-.6737-.154-.1943-.295-.3989-.421-.6124l.159-.0947c.203-.1246.435-.1942.673-.2018.166-.0008.331.0223.491.0684.158.0473.302.1336.418.2509.244.2319.511.4399.795.6212.211.1314.437.2385.672.3193.198.0642.402.1048.609.1211.195.014.396.0245.603.0316.434.0136.867-.0348 1.286-.1439.418-.1016.813-.2802 1.164-.5264.347-.2444.636-.5619.845-.9299.227-.4125.34-.8775.327-1.3475.02-.481-.067-.9604-.256-1.4037-.161-.3381-.404-.6315-.706-.8545-.329-.2335-.691-.4179-1.074-.5474-.413-.1462-.858-.3112-1.335-.4948-.605-.2404-1.157-.465-1.655-.6685-.457-.1823-.886-.4274-1.275-.7282-.352-.277-.634-.6314-.824-1.0352-.214-.5033-.313-1.0472-.293-1.5931-.007-.5626.129-1.118.395-1.6142.257-.4743.603-.8949 1.02-1.2388.42-.3446.898-.6142 1.411-.7965.505-.1832 1.038-.2782 1.575-.2808.415-.0052.828.054 1.224.1755.351.1092.687.2588 1.002.4456.296.1745.572.3791.824.6106.245.227.471.4504.678.6703l-.332.2333c-.09.0652-.188.1172-.293.1544-.13.0416-.266.0612-.402.058-.243.0085-.483-.0544-.69-.1808z"/><path d="m57.649 19.2465v6.3902c-.3708.3715-.7918.6898-1.2509.9458-.4476.249-.9217.4477-1.4135.5925-.5014.1463-1.0154.2458-1.5354.2971-.5347.0543-1.072.0813-1.6095.0808-1.0463.0083-2.0831-.1976-3.0461-.6047-.9289-.394-1.7752-.9581-2.4947-1.6631-.7154-.7082-1.287-1.5467-1.6838-2.4699-.4131-.9584-.6225-1.9915-.6149-3.0343-.0079-1.3801.3583-2.7369 1.0601-3.9273.3437-.5771.7593-1.1087 1.2368-1.5822.9612-.9523 2.1545-1.6398 3.463-1.9953.6779-.1859 1.3782-.2787 2.0813-.276.5651-.0009 1.1283.0634 1.6785.1916.5486.1269 1.0818.3126 1.5902.5537.5114.2469.9983.5412 1.4541.879.4659.3433.8994.7281 1.2951 1.1498l-.6432.6487c-.1821.1985-.4052.3556-.6541.4603s-.5175.1545-.7876.1462c-.3907.0032-.7725-.1155-1.0919-.3393-.4071-.2785-.8521-.4975-1.3216-.6505-.4884-.1575-.999-.2364-1.5124-.2338-.6681-.0024-1.3296.1316-1.9435.3938-1.2085.5023-2.176 1.4486-2.7015 2.6422-.2679.6097-.4045 1.2684-.4011 1.9338-.0053.6769.137 1.3468.417 1.9637.4126.9033 1.0778 1.6693 1.9163 2.2064.8384.5371 1.8145.8227 2.8117.8226.3401-.008.6794-.0368 1.016-.0861.3177-.0475.6322-.1145.9417-.2005.3235-.0888.6332-.2213.9205-.3937v-2.143l-.8834-.0158c-.2652.001-.5275-.0554-.7686-.1653-.2354-.1144-.4256-.3037-.5406-.5379-.1563-.3525-.226-.737-.2032-1.1216v-.8527z"/><path d="m37.7317 22.2683c1.2527-9.7929-5.6704-18.7472-15.4634-19.99996-9.7929-1.25277-18.7472 5.6704-19.99997 15.46336-1.25276 9.7929 5.67041 18.7472 15.46337 20 9.7929 1.2527 18.7472-5.6704 20-15.4634z"/></g><path d="m20.6625 19.7186v1.7137h3.7525v2.8662h-3.7261v-.0102c-.0996 0-.2033.0102-.3029.0102-.5535.0015-1.1017-.1085-1.612-.3232-.7414-.3136-1.3767-.8345-1.8294-1.5002-.5561-.824-.797-1.8205-.6788-2.8075.1182-.9869.5877-1.8984 1.3226-2.5677.7349-.6692 1.6862-1.0517 2.6799-1.0774.9937-.0256 1.9634.3072 2.7319.9377h7.3179c-.0935-.2927-.2032-.5814-.3191-.8619-.734-1.7388-1.9257-3.246-3.4482-4.3613s-3.319-1.79693-5.1981-1.97235c-1.8792-.17543-3.7708.16191-5.4734.97615-1.7027.8142-3.1528 2.0748-4.1959 3.6477-1.0431 1.5728-1.6403 3.3991-1.72798 5.2844-.08766 1.8853.33748 3.7591 1.23018 5.4219.8926 1.6629 2.2194 3.0526 3.8392 4.0213 1.6198.9688 3.4719 1.4802 5.3592 1.4799h10.3671v-10.8814zm3.7525 9.1475h-3.4557c-.1301 0-.2643.0142-.4066.0163h-.3008c-1.4983-.021-2.9659-.4276-4.2613-1.1806-1.2955-.753-2.3751-1.827-3.1349-3.1185-.7597-1.2915-1.1739-2.757-1.2027-4.2551s.3288-2.9784 1.0384-4.2981c.7095-1.3198 1.7471-2.4345 3.0127-3.2367 1.2655-.8022 2.7164-1.2649 4.2127-1.3434 1.4964-.0785 2.9877.2297 4.3303.8951 1.3426.6653 2.4911 1.6653 3.3349 2.9035h-4.0208c-.7647-.4934-1.6339-.8017-2.5386-.9005s-1.8199.0147-2.6731.3315c-.8531.3168-1.6207.8281-2.2417 1.4933-.6211.6652-1.0784 1.4661-1.3359 2.339-.2574.8729-.3078 1.7938-.1471 2.6896.1607.8957.528 1.7417 1.0727 2.4707.5448.729 1.252 1.321 2.0655 1.729.8135.4079 1.7109.6206 2.621.6211h4.031zm4.6388.0163h-2.9232l.0163-.0102h-.0163v-2.8459h2.9232zm0-4.5799h-2.9232v-2.8662h2.9232z" fill="#262626"/><path d="m20.1563 19.1779v1.7136h3.7545v2.8662h-3.7301v-.0101c-.0996 0-.2033.0101-.3008.0101-.6787.0013-1.3472-.1651-1.9461-.4842-.5989-.3192-1.1098-.7813-1.4873-1.3452-.3835-.5716-.6192-1.2294-.6859-1.9145s.0377-1.376.3037-2.0108c.3132-.7424.835-1.3779 1.5023-1.8295.5706-.3847 1.2282-.6212 1.9132-.6879s1.3758.0384 2.01.3057c.3661.1539.7084.3592 1.0164.6099h7.318c-.0956-.2928-.2033-.5814-.3192-.8619-.7366-1.7358-1.9296-3.2396-3.4523-4.3517-1.5226-1.1121-3.3181-1.79097-5.1957-1.96454-1.8775-.17356-3.767.16468-5.4677.97884-1.7008.8141-3.1492 2.0737-4.1915 3.645-1.0424 1.5713-1.63959 3.3955-1.72831 5.279-.08871 1.8835.3344 3.7558 1.22441 5.4181.89 1.6623 2.2136 3.0524 3.8303 4.0228s3.466 1.4848 5.3516 1.4885h10.3671v-10.8875zm3.7545 9.1475h-3.4557c-.1321 0-.2642.0142-.4065.0162h-.2948c-1.4988-.0188-2.9674-.4236-4.2643-1.1753-1.2968-.7517-2.3781-1.8248-3.1394-3.116-.7614-1.2912-1.1772-2.7567-1.2073-4.2554-.0301-1.4986.3265-2.9797 1.0354-4.3004.7088-1.3207 1.7461-2.4364 3.0117-3.2396 1.2656-.8031 2.7168-1.2666 4.2137-1.3457 1.4968-.079 2.9888.229 4.3319.8944 1.3432.6653 2.4922 1.6656 3.3363 2.9043h-4.0168c-.7642-.4973-1.6339-.8091-2.54-.9108-.906-.1017-1.8232.0097-2.6786.3252s-1.6253.8264-2.2483 1.4921c-.6231.6656-1.082 1.4675-1.3403 2.3419s-.3089 1.797-.1476 2.6943.5299 1.7446 1.0765 2.4743 1.2561 1.3216 2.0719 1.7287c.8159.407 1.7155.6178 2.6272.6157h4.031zm4.6388.0162h-2.9231l.0142-.0101h-.0142v-2.8622h2.9231zm0-4.5798h-2.9231v-2.8662h2.9231z" fill="#fff"/><path d="m23.9109 25.4714h1.7156v.8151h-1.7156z" fill="#999"/><path d="m22.5225 20.8916h1.3883v.8151h1.7137v-.8151h1.2582v-.0021h-4.3602z" fill="#999"/></svg>