<svg enable-background="new 0 0 200 254" viewBox="0 0 200 254" xmlns="http://www.w3.org/2000/svg"><g fill="#e4e7eb"><path d="m24 7.6c-.9 0-1.5-.7-1.6-1.5s.7-1.5 1.5-1.6 1.5.7 1.6 1.5c0 .9-.7 1.6-1.5 1.6zm0 8.2c-.9 0-1.5-.7-1.6-1.5s.7-1.5 1.5-1.6 1.5.7 1.6 1.5c0 .9-.7 1.6-1.5 1.6zm0 8.3c-.9 0-1.5-.7-1.6-1.5s.7-1.5 1.5-1.6 1.5.7 1.6 1.5c0 .9-.7 1.5-1.5 1.6zm0 8.2c-.9 0-1.5-.7-1.6-1.5s.7-1.5 1.5-1.6 1.5.7 1.6 1.5c0 .9-.7 1.6-1.5 1.6zm0 8.2c-.9 0-1.5-.7-1.6-1.5s.7-1.5 1.5-1.6 1.5.7 1.6 1.5c0 .9-.7 1.6-1.5 1.6zm-8-32.9c-.9 0-1.5-.7-1.5-1.5s.7-1.5 1.5-1.5c.9 0 1.5.7 1.5 1.5 0 .8-.6 1.5-1.5 1.5zm0 8.2c-.9 0-1.5-.7-1.5-1.5s.7-1.5 1.5-1.5c.9 0 1.5.7 1.5 1.5 0 .8-.6 1.5-1.5 1.5zm0 8.2c-.9 0-1.5-.7-1.5-1.5s.6-1.5 1.5-1.5 1.5.7 1.5 1.5c0 .9-.6 1.5-1.5 1.5 0 .1 0 .1 0 0zm0 8.3c-.9 0-1.5-.7-1.5-1.5s.7-1.5 1.5-1.5c.9 0 1.5.7 1.5 1.5 0 .8-.6 1.5-1.5 1.5zm0 8.2c-.9 0-1.5-.7-1.5-1.5s.7-1.5 1.5-1.5c.9 0 1.5.7 1.5 1.5 0 .8-.6 1.5-1.5 1.5zm-8-32.9c-.9 0-1.5-.7-1.5-1.5s.7-1.5 1.5-1.5c.9 0 1.5.7 1.5 1.5.1.8-.6 1.5-1.5 1.5zm0 8.2c-.9 0-1.5-.7-1.5-1.5s.7-1.5 1.5-1.5c.9 0 1.5.7 1.5 1.5.1.8-.6 1.5-1.5 1.5zm0 8.2c-.9 0-1.5-.7-1.5-1.5s.7-1.5 1.5-1.5c.9 0 1.5.7 1.5 1.5.1.9-.6 1.5-1.5 1.5 0 .1 0 .1 0 0zm0 8.3c-.9 0-1.5-.7-1.5-1.5s.7-1.5 1.5-1.5c.9 0 1.5.7 1.5 1.5.1.8-.6 1.5-1.5 1.5zm0 8.2c-.9 0-1.5-.7-1.5-1.5s.7-1.5 1.5-1.5c.9 0 1.5.7 1.5 1.5.1.8-.6 1.5-1.5 1.5zm16 8.1c-.9 0-1.5-.7-1.6-1.5s.7-1.5 1.5-1.6 1.5.7 1.6 1.5c0 .9-.7 1.6-1.5 1.6zm0 8.2c-.9 0-1.5-.7-1.6-1.5s.7-1.5 1.5-1.6 1.5.7 1.6 1.5c0 1-.7 1.6-1.5 1.6 0 .1 0 .1 0 0zm0 8.3c-.9 0-1.5-.7-1.6-1.5s.7-1.5 1.5-1.6 1.5.7 1.6 1.5c0 .9-.7 1.6-1.5 1.6zm0 8.2c-.9 0-1.5-.7-1.6-1.5s.7-1.5 1.5-1.6 1.5.7 1.6 1.5c0 .9-.7 1.6-1.5 1.6zm0 8.2c-.9 0-1.5-.7-1.6-1.5s.7-1.5 1.5-1.6 1.5.7 1.6 1.5c0 .9-.7 1.6-1.5 1.6zm-8-32.9c-.9 0-1.5-.7-1.5-1.5s.7-1.5 1.5-1.5c.9 0 1.5.7 1.5 1.5 0 .8-.6 1.5-1.5 1.5zm0 8.2c-.9 0-1.5-.7-1.5-1.5s.7-1.5 1.5-1.5c.9 0 1.5.7 1.5 1.5 0 .9-.6 1.5-1.5 1.5 0 .1 0 .1 0 0zm0 8.3c-.9 0-1.5-.7-1.5-1.5s.6-1.6 1.5-1.6 1.5.7 1.5 1.5c0 .9-.6 1.6-1.5 1.6zm0 8.2c-.9 0-1.5-.7-1.5-1.5s.7-1.5 1.5-1.5c.9 0 1.5.7 1.5 1.5 0 .8-.6 1.5-1.5 1.5zm0 8.2c-.9 0-1.5-.7-1.5-1.5s.7-1.5 1.5-1.5c.9 0 1.5.7 1.5 1.5 0 .8-.6 1.5-1.5 1.5zm-8-32.9c-.9 0-1.5-.7-1.5-1.5s.7-1.5 1.5-1.5c.9 0 1.5.7 1.5 1.5.1.8-.6 1.5-1.5 1.5zm0 8.2c-.9 0-1.5-.7-1.5-1.5s.7-1.5 1.5-1.5c.9 0 1.5.7 1.5 1.5.1.9-.6 1.5-1.5 1.5 0 .1 0 .1 0 0zm0 8.3c-.9 0-1.5-.7-1.5-1.5s.7-1.6 1.5-1.6c.9 0 1.5.7 1.5 1.5.1.9-.6 1.6-1.5 1.6zm0 8.2c-.9 0-1.5-.7-1.5-1.5s.7-1.5 1.5-1.5c.9 0 1.5.7 1.5 1.5.1.8-.6 1.5-1.5 1.5zm0 8.2c-.9 0-1.5-.7-1.5-1.5s.7-1.5 1.5-1.5c.9 0 1.5.7 1.5 1.5.1.8-.6 1.5-1.5 1.5z"/><path d="m48 7.6c-.9 0-1.5-.7-1.6-1.5s.7-1.5 1.5-1.6 1.5.7 1.6 1.5c0 .9-.7 1.6-1.5 1.6zm0 8.2c-.9 0-1.5-.7-1.6-1.5s.7-1.5 1.5-1.6 1.5.7 1.6 1.5c0 .9-.7 1.6-1.5 1.6zm0 8.3c-.9 0-1.5-.7-1.6-1.5s.7-1.5 1.5-1.6 1.5.7 1.6 1.5c0 .9-.7 1.5-1.5 1.6zm0 8.2c-.9 0-1.5-.7-1.6-1.5s.7-1.5 1.5-1.6 1.5.7 1.6 1.5c0 .9-.7 1.6-1.5 1.6zm0 8.2c-.9 0-1.5-.7-1.6-1.5s.7-1.5 1.5-1.6 1.5.7 1.6 1.5c0 .9-.7 1.6-1.5 1.6zm-8-32.9c-.9 0-1.5-.7-1.5-1.5s.7-1.5 1.5-1.5c.9 0 1.5.7 1.5 1.5 0 .8-.6 1.5-1.5 1.5zm0 8.2c-.9 0-1.5-.7-1.5-1.5s.7-1.5 1.5-1.5c.9 0 1.5.7 1.5 1.5 0 .8-.6 1.5-1.5 1.5zm0 8.2c-.9 0-1.5-.7-1.5-1.5s.6-1.5 1.5-1.5 1.5.7 1.5 1.5c0 .9-.6 1.5-1.5 1.5 0 .1 0 .1 0 0zm0 8.3c-.9 0-1.5-.7-1.5-1.5s.7-1.5 1.5-1.5c.9 0 1.5.7 1.5 1.5 0 .8-.6 1.5-1.5 1.5zm0 8.2c-.9 0-1.5-.7-1.5-1.5s.7-1.5 1.5-1.5c.9 0 1.5.7 1.5 1.5 0 .8-.6 1.5-1.5 1.5zm-8-32.9c-.9 0-1.5-.7-1.5-1.5s.7-1.5 1.5-1.5c.9 0 1.5.7 1.5 1.5.1.8-.6 1.5-1.5 1.5zm0 8.2c-.9 0-1.5-.7-1.5-1.5s.7-1.5 1.5-1.5c.9 0 1.5.7 1.5 1.5.1.8-.6 1.5-1.5 1.5zm0 8.2c-.9 0-1.5-.7-1.5-1.5s.7-1.5 1.5-1.5c.9 0 1.5.7 1.5 1.5.1.9-.6 1.5-1.5 1.5 0 .1 0 .1 0 0zm0 8.3c-.9 0-1.5-.7-1.5-1.5s.7-1.5 1.5-1.5c.9 0 1.5.7 1.5 1.5.1.8-.6 1.5-1.5 1.5zm0 8.2c-.9 0-1.5-.7-1.5-1.5s.7-1.5 1.5-1.5c.9 0 1.5.7 1.5 1.5.1.8-.6 1.5-1.5 1.5zm16 8.1c-.9 0-1.5-.7-1.6-1.5s.7-1.5 1.5-1.6 1.5.7 1.6 1.5c0 .9-.7 1.6-1.5 1.6zm0 8.2c-.9 0-1.5-.7-1.6-1.5s.7-1.5 1.5-1.6 1.5.7 1.6 1.5c0 1-.7 1.6-1.5 1.6 0 .1 0 .1 0 0zm0 8.3c-.9 0-1.5-.7-1.6-1.5s.7-1.5 1.5-1.6 1.5.7 1.6 1.5c0 .9-.7 1.6-1.5 1.6zm0 8.2c-.9 0-1.5-.7-1.6-1.5s.7-1.5 1.5-1.6 1.5.7 1.6 1.5c0 .9-.7 1.6-1.5 1.6zm0 8.2c-.9 0-1.5-.7-1.6-1.5s.7-1.5 1.5-1.6 1.5.7 1.6 1.5c0 .9-.7 1.6-1.5 1.6zm-8-32.9c-.9 0-1.5-.7-1.5-1.5s.7-1.5 1.5-1.5c.9 0 1.5.7 1.5 1.5 0 .8-.6 1.5-1.5 1.5zm0 8.2c-.9 0-1.5-.7-1.5-1.5s.7-1.5 1.5-1.5c.9 0 1.5.7 1.5 1.5 0 .9-.6 1.5-1.5 1.5 0 .1 0 .1 0 0zm0 8.3c-.9 0-1.5-.7-1.5-1.5s.6-1.6 1.5-1.6 1.5.7 1.5 1.5c0 .9-.6 1.6-1.5 1.6zm0 8.2c-.9 0-1.5-.7-1.5-1.5s.7-1.5 1.5-1.5c.9 0 1.5.7 1.5 1.5 0 .8-.6 1.5-1.5 1.5zm0 8.2c-.9 0-1.5-.7-1.5-1.5s.7-1.5 1.5-1.5c.9 0 1.5.7 1.5 1.5 0 .8-.6 1.5-1.5 1.5zm-8-32.9c-.9 0-1.5-.7-1.5-1.5s.7-1.5 1.5-1.5c.9 0 1.5.7 1.5 1.5.1.8-.6 1.5-1.5 1.5zm0 8.2c-.9 0-1.5-.7-1.5-1.5s.7-1.5 1.5-1.5c.9 0 1.5.7 1.5 1.5.1.9-.6 1.5-1.5 1.5 0 .1 0 .1 0 0zm0 8.3c-.9 0-1.5-.7-1.5-1.5s.7-1.6 1.5-1.6c.9 0 1.5.7 1.5 1.5.1.9-.6 1.6-1.5 1.6zm0 8.2c-.9 0-1.5-.7-1.5-1.5s.7-1.5 1.5-1.5c.9 0 1.5.7 1.5 1.5.1.8-.6 1.5-1.5 1.5zm0 8.2c-.9 0-1.5-.7-1.5-1.5s.7-1.5 1.5-1.5c.9 0 1.5.7 1.5 1.5.1.8-.6 1.5-1.5 1.5z"/><path d="m72 7.6c-.9 0-1.5-.7-1.6-1.5s.7-1.5 1.5-1.6 1.5.7 1.6 1.5c0 .9-.7 1.6-1.5 1.6zm0 8.2c-.9 0-1.5-.7-1.6-1.5s.7-1.5 1.5-1.6 1.5.7 1.6 1.5c0 .9-.7 1.6-1.5 1.6zm0 8.3c-.9 0-1.5-.7-1.6-1.5s.7-1.5 1.5-1.6 1.5.7 1.6 1.5c0 .9-.7 1.5-1.5 1.6zm0 8.2c-.9 0-1.5-.7-1.6-1.5s.7-1.5 1.5-1.6 1.5.7 1.6 1.5c0 .9-.7 1.6-1.5 1.6zm0 8.2c-.9 0-1.5-.7-1.6-1.5s.7-1.5 1.5-1.6 1.5.7 1.6 1.5c0 .9-.7 1.6-1.5 1.6zm-8-32.9c-.9 0-1.5-.7-1.5-1.5s.7-1.5 1.5-1.5c.9 0 1.5.7 1.5 1.5 0 .8-.6 1.5-1.5 1.5zm0 8.2c-.9 0-1.5-.7-1.5-1.5s.7-1.5 1.5-1.5c.9 0 1.5.7 1.5 1.5 0 .8-.6 1.5-1.5 1.5zm0 8.2c-.9 0-1.5-.7-1.5-1.5s.6-1.5 1.5-1.5 1.5.7 1.5 1.5c0 .9-.6 1.5-1.5 1.5 0 .1 0 .1 0 0zm0 8.3c-.9 0-1.5-.7-1.5-1.5s.7-1.5 1.5-1.5c.9 0 1.5.7 1.5 1.5 0 .8-.6 1.5-1.5 1.5zm0 8.2c-.9 0-1.5-.7-1.5-1.5s.7-1.5 1.5-1.5c.9 0 1.5.7 1.5 1.5 0 .8-.6 1.5-1.5 1.5zm-8-32.9c-.9 0-1.5-.7-1.5-1.5s.7-1.5 1.5-1.5c.9 0 1.5.7 1.5 1.5.1.8-.6 1.5-1.5 1.5zm0 8.2c-.9 0-1.5-.7-1.5-1.5s.7-1.5 1.5-1.5c.9 0 1.5.7 1.5 1.5.1.8-.6 1.5-1.5 1.5zm0 8.2c-.9 0-1.5-.7-1.5-1.5s.7-1.5 1.5-1.5c.9 0 1.5.7 1.5 1.5.1.9-.6 1.5-1.5 1.5 0 .1 0 .1 0 0zm0 8.3c-.9 0-1.5-.7-1.5-1.5s.7-1.5 1.5-1.5c.9 0 1.5.7 1.5 1.5.1.8-.6 1.5-1.5 1.5zm0 8.2c-.9 0-1.5-.7-1.5-1.5s.7-1.5 1.5-1.5c.9 0 1.5.7 1.5 1.5.1.8-.6 1.5-1.5 1.5zm16 8.1c-.9 0-1.5-.7-1.6-1.5s.7-1.5 1.5-1.6 1.5.7 1.6 1.5c0 .9-.7 1.6-1.5 1.6zm0 8.2c-.9 0-1.5-.7-1.6-1.5s.7-1.5 1.5-1.6 1.5.7 1.6 1.5c0 1-.7 1.6-1.5 1.6 0 .1 0 .1 0 0zm0 8.3c-.9 0-1.5-.7-1.6-1.5s.7-1.5 1.5-1.6 1.5.7 1.6 1.5c0 .9-.7 1.6-1.5 1.6zm0 8.2c-.9 0-1.5-.7-1.6-1.5s.7-1.5 1.5-1.6 1.5.7 1.6 1.5c0 .9-.7 1.6-1.5 1.6zm0 8.2c-.9 0-1.5-.7-1.6-1.5s.7-1.5 1.5-1.6 1.5.7 1.6 1.5c0 .9-.7 1.6-1.5 1.6zm-8-32.9c-.9 0-1.5-.7-1.5-1.5s.7-1.5 1.5-1.5c.9 0 1.5.7 1.5 1.5 0 .8-.6 1.5-1.5 1.5zm0 8.2c-.9 0-1.5-.7-1.5-1.5s.7-1.5 1.5-1.5c.9 0 1.5.7 1.5 1.5 0 .9-.6 1.5-1.5 1.5 0 .1 0 .1 0 0zm0 8.3c-.9 0-1.5-.7-1.5-1.5s.6-1.6 1.5-1.6 1.5.7 1.5 1.5c0 .9-.6 1.6-1.5 1.6zm0 8.2c-.9 0-1.5-.7-1.5-1.5s.7-1.5 1.5-1.5c.9 0 1.5.7 1.5 1.5 0 .8-.6 1.5-1.5 1.5zm0 8.2c-.9 0-1.5-.7-1.5-1.5s.7-1.5 1.5-1.5c.9 0 1.5.7 1.5 1.5 0 .8-.6 1.5-1.5 1.5zm-8-32.9c-.9 0-1.5-.7-1.5-1.5s.7-1.5 1.5-1.5c.9 0 1.5.7 1.5 1.5.1.8-.6 1.5-1.5 1.5zm0 8.2c-.9 0-1.5-.7-1.5-1.5s.7-1.5 1.5-1.5c.9 0 1.5.7 1.5 1.5.1.9-.6 1.5-1.5 1.5 0 .1 0 .1 0 0zm0 8.3c-.9 0-1.5-.7-1.5-1.5s.7-1.6 1.5-1.6c.9 0 1.5.7 1.5 1.5.1.9-.6 1.6-1.5 1.6zm0 8.2c-.9 0-1.5-.7-1.5-1.5s.7-1.5 1.5-1.5c.9 0 1.5.7 1.5 1.5.1.8-.6 1.5-1.5 1.5zm0 8.2c-.9 0-1.5-.7-1.5-1.5s.7-1.5 1.5-1.5c.9 0 1.5.7 1.5 1.5.1.8-.6 1.5-1.5 1.5z"/><path d="m96 7.6c-.9 0-1.5-.7-1.6-1.5s.7-1.5 1.5-1.6 1.5.7 1.6 1.5c0 .9-.7 1.6-1.5 1.6zm0 8.2c-.9 0-1.5-.7-1.6-1.5s.7-1.5 1.5-1.6 1.5.7 1.6 1.5c0 .9-.7 1.6-1.5 1.6zm0 8.3c-.9 0-1.5-.7-1.6-1.5s.7-1.5 1.5-1.6 1.5.7 1.6 1.5c0 .9-.7 1.5-1.5 1.6zm0 8.2c-.9 0-1.5-.7-1.6-1.5s.7-1.5 1.5-1.6 1.5.7 1.6 1.5c0 .9-.7 1.6-1.5 1.6zm0 8.2c-.9 0-1.5-.7-1.6-1.5s.7-1.5 1.5-1.6 1.5.7 1.6 1.5c0 .9-.7 1.6-1.5 1.6zm-8-32.9c-.9 0-1.5-.7-1.5-1.5s.7-1.5 1.5-1.5c.9 0 1.5.7 1.5 1.5 0 .8-.6 1.5-1.5 1.5zm0 8.2c-.9 0-1.5-.7-1.5-1.5s.7-1.5 1.5-1.5c.9 0 1.5.7 1.5 1.5 0 .8-.6 1.5-1.5 1.5zm0 8.2c-.9 0-1.5-.7-1.5-1.5s.6-1.5 1.5-1.5 1.5.7 1.5 1.5c0 .9-.6 1.5-1.5 1.5 0 .1 0 .1 0 0zm0 8.3c-.9 0-1.5-.7-1.5-1.5s.7-1.5 1.5-1.5c.9 0 1.5.7 1.5 1.5 0 .8-.6 1.5-1.5 1.5zm0 8.2c-.9 0-1.5-.7-1.5-1.5s.7-1.5 1.5-1.5c.9 0 1.5.7 1.5 1.5 0 .8-.6 1.5-1.5 1.5zm-8-32.9c-.9 0-1.5-.7-1.5-1.5s.7-1.5 1.5-1.5c.9 0 1.5.7 1.5 1.5.1.8-.6 1.5-1.5 1.5zm0 8.2c-.9 0-1.5-.7-1.5-1.5s.7-1.5 1.5-1.5c.9 0 1.5.7 1.5 1.5.1.8-.6 1.5-1.5 1.5zm0 8.2c-.9 0-1.5-.7-1.5-1.5s.7-1.5 1.5-1.5c.9 0 1.5.7 1.5 1.5.1.9-.6 1.5-1.5 1.5 0 .1 0 .1 0 0zm0 8.3c-.9 0-1.5-.7-1.5-1.5s.7-1.5 1.5-1.5c.9 0 1.5.7 1.5 1.5.1.8-.6 1.5-1.5 1.5zm0 8.2c-.9 0-1.5-.7-1.5-1.5s.7-1.5 1.5-1.5c.9 0 1.5.7 1.5 1.5.1.8-.6 1.5-1.5 1.5zm16 8.1c-.9 0-1.5-.7-1.6-1.5s.7-1.5 1.5-1.6 1.5.7 1.6 1.5c0 .9-.7 1.6-1.5 1.6zm0 8.2c-.9 0-1.5-.7-1.6-1.5s.7-1.5 1.5-1.6 1.5.7 1.6 1.5c0 1-.7 1.6-1.5 1.6 0 .1 0 .1 0 0zm0 8.3c-.9 0-1.5-.7-1.6-1.5s.7-1.5 1.5-1.6 1.5.7 1.6 1.5c0 .9-.7 1.6-1.5 1.6zm0 8.2c-.9 0-1.5-.7-1.6-1.5s.7-1.5 1.5-1.6 1.5.7 1.6 1.5c0 .9-.7 1.6-1.5 1.6zm0 8.2c-.9 0-1.5-.7-1.6-1.5s.7-1.5 1.5-1.6 1.5.7 1.6 1.5c0 .9-.7 1.6-1.5 1.6zm-8-32.9c-.9 0-1.5-.7-1.5-1.5s.7-1.5 1.5-1.5c.9 0 1.5.7 1.5 1.5 0 .8-.6 1.5-1.5 1.5zm0 8.2c-.9 0-1.5-.7-1.5-1.5s.7-1.5 1.5-1.5c.9 0 1.5.7 1.5 1.5 0 .9-.6 1.5-1.5 1.5 0 .1 0 .1 0 0zm0 8.3c-.9 0-1.5-.7-1.5-1.5s.6-1.6 1.5-1.6 1.5.7 1.5 1.5c0 .9-.6 1.6-1.5 1.6zm0 8.2c-.9 0-1.5-.7-1.5-1.5s.7-1.5 1.5-1.5c.9 0 1.5.7 1.5 1.5 0 .8-.6 1.5-1.5 1.5zm0 8.2c-.9 0-1.5-.7-1.5-1.5s.7-1.5 1.5-1.5c.9 0 1.5.7 1.5 1.5 0 .8-.6 1.5-1.5 1.5zm-8-32.9c-.9 0-1.5-.7-1.5-1.5s.7-1.5 1.5-1.5c.9 0 1.5.7 1.5 1.5.1.8-.6 1.5-1.5 1.5zm0 8.2c-.9 0-1.5-.7-1.5-1.5s.7-1.5 1.5-1.5c.9 0 1.5.7 1.5 1.5.1.9-.6 1.5-1.5 1.5 0 .1 0 .1 0 0zm0 8.3c-.9 0-1.5-.7-1.5-1.5s.7-1.6 1.5-1.6c.9 0 1.5.7 1.5 1.5.1.9-.6 1.6-1.5 1.6zm0 8.2c-.9 0-1.5-.7-1.5-1.5s.7-1.5 1.5-1.5c.9 0 1.5.7 1.5 1.5.1.8-.6 1.5-1.5 1.5zm0 8.2c-.9 0-1.5-.7-1.5-1.5s.7-1.5 1.5-1.5c.9 0 1.5.7 1.5 1.5.1.8-.6 1.5-1.5 1.5z"/><path d="m120 7.6c-.9 0-1.5-.7-1.6-1.5s.7-1.5 1.5-1.6 1.5.7 1.6 1.5c0 .9-.7 1.6-1.5 1.6zm0 8.2c-.9 0-1.5-.7-1.6-1.5s.7-1.5 1.5-1.6 1.5.7 1.6 1.5c0 .9-.7 1.6-1.5 1.6zm0 8.3c-.9 0-1.5-.7-1.6-1.5s.7-1.5 1.5-1.6 1.5.7 1.6 1.5c0 .9-.7 1.5-1.5 1.6zm0 8.2c-.9 0-1.5-.7-1.6-1.5s.7-1.5 1.5-1.6 1.5.7 1.6 1.5c0 .9-.7 1.6-1.5 1.6zm0 8.2c-.9 0-1.5-.7-1.6-1.5s.7-1.5 1.5-1.6 1.5.7 1.6 1.5c0 .9-.7 1.6-1.5 1.6zm-8-32.9c-.9 0-1.5-.7-1.5-1.5s.7-1.5 1.5-1.5c.9 0 1.5.7 1.5 1.5 0 .8-.6 1.5-1.5 1.5zm0 8.2c-.9 0-1.5-.7-1.5-1.5s.7-1.5 1.5-1.5c.9 0 1.5.7 1.5 1.5 0 .8-.6 1.5-1.5 1.5zm0 8.2c-.9 0-1.5-.7-1.5-1.5s.6-1.5 1.5-1.5 1.5.7 1.5 1.5c0 .9-.6 1.5-1.5 1.5 0 .1 0 .1 0 0zm0 8.3c-.9 0-1.5-.7-1.5-1.5s.7-1.5 1.5-1.5c.9 0 1.5.7 1.5 1.5 0 .8-.6 1.5-1.5 1.5zm0 8.2c-.9 0-1.5-.7-1.5-1.5s.7-1.5 1.5-1.5c.9 0 1.5.7 1.5 1.5 0 .8-.6 1.5-1.5 1.5zm-8-32.9c-.9 0-1.5-.7-1.5-1.5s.7-1.5 1.5-1.5c.9 0 1.5.7 1.5 1.5.1.8-.6 1.5-1.5 1.5zm0 8.2c-.9 0-1.5-.7-1.5-1.5s.7-1.5 1.5-1.5c.9 0 1.5.7 1.5 1.5.1.8-.6 1.5-1.5 1.5zm0 8.2c-.9 0-1.5-.7-1.5-1.5s.7-1.5 1.5-1.5c.9 0 1.5.7 1.5 1.5.1.9-.6 1.5-1.5 1.5 0 .1 0 .1 0 0zm0 8.3c-.9 0-1.5-.7-1.5-1.5s.7-1.5 1.5-1.5c.9 0 1.5.7 1.5 1.5.1.8-.6 1.5-1.5 1.5zm0 8.2c-.9 0-1.5-.7-1.5-1.5s.7-1.5 1.5-1.5c.9 0 1.5.7 1.5 1.5.1.8-.6 1.5-1.5 1.5zm16 8.1c-.9 0-1.5-.7-1.6-1.5s.7-1.5 1.5-1.6 1.5.7 1.6 1.5c0 .9-.7 1.6-1.5 1.6zm0 8.2c-.9 0-1.5-.7-1.6-1.5s.7-1.5 1.5-1.6 1.5.7 1.6 1.5c0 1-.7 1.6-1.5 1.6 0 .1 0 .1 0 0zm0 8.3c-.9 0-1.5-.7-1.6-1.5s.7-1.5 1.5-1.6 1.5.7 1.6 1.5c0 .9-.7 1.6-1.5 1.6zm0 8.2c-.9 0-1.5-.7-1.6-1.5s.7-1.5 1.5-1.6 1.5.7 1.6 1.5c0 .9-.7 1.6-1.5 1.6zm0 8.2c-.9 0-1.5-.7-1.6-1.5s.7-1.5 1.5-1.6 1.5.7 1.6 1.5c0 .9-.7 1.6-1.5 1.6zm-8-32.9c-.9 0-1.5-.7-1.5-1.5s.7-1.5 1.5-1.5c.9 0 1.5.7 1.5 1.5 0 .8-.6 1.5-1.5 1.5zm0 8.2c-.9 0-1.5-.7-1.5-1.5s.7-1.5 1.5-1.5c.9 0 1.5.7 1.5 1.5 0 .9-.6 1.5-1.5 1.5 0 .1 0 .1 0 0zm0 8.3c-.9 0-1.5-.7-1.5-1.5s.6-1.6 1.5-1.6 1.5.7 1.5 1.5c0 .9-.6 1.6-1.5 1.6zm0 8.2c-.9 0-1.5-.7-1.5-1.5s.7-1.5 1.5-1.5c.9 0 1.5.7 1.5 1.5 0 .8-.6 1.5-1.5 1.5zm0 8.2c-.9 0-1.5-.7-1.5-1.5s.7-1.5 1.5-1.5c.9 0 1.5.7 1.5 1.5 0 .8-.6 1.5-1.5 1.5zm-8-32.9c-.9 0-1.5-.7-1.5-1.5s.7-1.5 1.5-1.5c.9 0 1.5.7 1.5 1.5.1.8-.6 1.5-1.5 1.5zm0 8.2c-.9 0-1.5-.7-1.5-1.5s.7-1.5 1.5-1.5c.9 0 1.5.7 1.5 1.5.1.9-.6 1.5-1.5 1.5 0 .1 0 .1 0 0zm0 8.3c-.9 0-1.5-.7-1.5-1.5s.7-1.6 1.5-1.6c.9 0 1.5.7 1.5 1.5.1.9-.6 1.6-1.5 1.6zm0 8.2c-.9 0-1.5-.7-1.5-1.5s.7-1.5 1.5-1.5c.9 0 1.5.7 1.5 1.5.1.8-.6 1.5-1.5 1.5zm0 8.2c-.9 0-1.5-.7-1.5-1.5s.7-1.5 1.5-1.5c.9 0 1.5.7 1.5 1.5.1.8-.6 1.5-1.5 1.5z"/><path d="m144 7.6c-.9 0-1.5-.7-1.6-1.5s.7-1.5 1.5-1.6 1.5.7 1.6 1.5c0 .9-.7 1.6-1.5 1.6zm0 8.2c-.9 0-1.5-.7-1.6-1.5s.7-1.5 1.5-1.6 1.5.7 1.6 1.5c0 .9-.7 1.6-1.5 1.6zm0 8.3c-.9 0-1.5-.7-1.6-1.5s.7-1.5 1.5-1.6 1.5.7 1.6 1.5c0 .9-.7 1.5-1.5 1.6zm0 8.2c-.9 0-1.5-.7-1.6-1.5s.7-1.5 1.5-1.6 1.5.7 1.6 1.5c0 .9-.7 1.6-1.5 1.6zm0 8.2c-.9 0-1.5-.7-1.6-1.5s.7-1.5 1.5-1.6 1.5.7 1.6 1.5c0 .9-.7 1.6-1.5 1.6zm-8-32.9c-.9 0-1.5-.7-1.5-1.5s.7-1.5 1.5-1.5c.9 0 1.5.7 1.5 1.5 0 .8-.6 1.5-1.5 1.5zm0 8.2c-.9 0-1.5-.7-1.5-1.5s.7-1.5 1.5-1.5c.9 0 1.5.7 1.5 1.5 0 .8-.6 1.5-1.5 1.5zm0 8.2c-.9 0-1.5-.7-1.5-1.5s.6-1.5 1.5-1.5 1.5.7 1.5 1.5c0 .9-.6 1.5-1.5 1.5 0 .1 0 .1 0 0zm0 8.3c-.9 0-1.5-.7-1.5-1.5s.7-1.5 1.5-1.5c.9 0 1.5.7 1.5 1.5 0 .8-.6 1.5-1.5 1.5zm0 8.2c-.9 0-1.5-.7-1.5-1.5s.7-1.5 1.5-1.5c.9 0 1.5.7 1.5 1.5 0 .8-.6 1.5-1.5 1.5zm-8-32.9c-.9 0-1.5-.7-1.5-1.5s.7-1.5 1.5-1.5c.9 0 1.5.7 1.5 1.5.1.8-.6 1.5-1.5 1.5zm0 8.2c-.9 0-1.5-.7-1.5-1.5s.7-1.5 1.5-1.5c.9 0 1.5.7 1.5 1.5.1.8-.6 1.5-1.5 1.5zm0 8.2c-.9 0-1.5-.7-1.5-1.5s.7-1.5 1.5-1.5c.9 0 1.5.7 1.5 1.5.1.9-.6 1.5-1.5 1.5 0 .1 0 .1 0 0zm0 8.3c-.9 0-1.5-.7-1.5-1.5s.7-1.5 1.5-1.5c.9 0 1.5.7 1.5 1.5.1.8-.6 1.5-1.5 1.5zm0 8.2c-.9 0-1.5-.7-1.5-1.5s.7-1.5 1.5-1.5c.9 0 1.5.7 1.5 1.5.1.8-.6 1.5-1.5 1.5zm16 8.1c-.9 0-1.5-.7-1.6-1.5s.7-1.5 1.5-1.6 1.5.7 1.6 1.5c0 .9-.7 1.6-1.5 1.6zm0 8.2c-.9 0-1.5-.7-1.6-1.5s.7-1.5 1.5-1.6 1.5.7 1.6 1.5c0 1-.7 1.6-1.5 1.6 0 .1 0 .1 0 0zm0 8.3c-.9 0-1.5-.7-1.6-1.5s.7-1.5 1.5-1.6 1.5.7 1.6 1.5c0 .9-.7 1.6-1.5 1.6zm0 8.2c-.9 0-1.5-.7-1.6-1.5s.7-1.5 1.5-1.6 1.5.7 1.6 1.5c0 .9-.7 1.6-1.5 1.6zm0 8.2c-.9 0-1.5-.7-1.6-1.5s.7-1.5 1.5-1.6 1.5.7 1.6 1.5c0 .9-.7 1.6-1.5 1.6zm-8-32.9c-.9 0-1.5-.7-1.5-1.5s.7-1.5 1.5-1.5c.9 0 1.5.7 1.5 1.5 0 .8-.6 1.5-1.5 1.5zm0 8.2c-.9 0-1.5-.7-1.5-1.5s.7-1.5 1.5-1.5c.9 0 1.5.7 1.5 1.5 0 .9-.6 1.5-1.5 1.5 0 .1 0 .1 0 0zm0 8.3c-.9 0-1.5-.7-1.5-1.5s.6-1.6 1.5-1.6 1.5.7 1.5 1.5c0 .9-.6 1.6-1.5 1.6zm0 8.2c-.9 0-1.5-.7-1.5-1.5s.7-1.5 1.5-1.5c.9 0 1.5.7 1.5 1.5 0 .8-.6 1.5-1.5 1.5zm0 8.2c-.9 0-1.5-.7-1.5-1.5s.7-1.5 1.5-1.5c.9 0 1.5.7 1.5 1.5 0 .8-.6 1.5-1.5 1.5zm-8-32.9c-.9 0-1.5-.7-1.5-1.5s.7-1.5 1.5-1.5c.9 0 1.5.7 1.5 1.5.1.8-.6 1.5-1.5 1.5zm0 8.2c-.9 0-1.5-.7-1.5-1.5s.7-1.5 1.5-1.5c.9 0 1.5.7 1.5 1.5.1.9-.6 1.5-1.5 1.5 0 .1 0 .1 0 0zm0 8.3c-.9 0-1.5-.7-1.5-1.5s.7-1.6 1.5-1.6c.9 0 1.5.7 1.5 1.5.1.9-.6 1.6-1.5 1.6zm0 8.2c-.9 0-1.5-.7-1.5-1.5s.7-1.5 1.5-1.5c.9 0 1.5.7 1.5 1.5.1.8-.6 1.5-1.5 1.5zm0 8.2c-.9 0-1.5-.7-1.5-1.5s.7-1.5 1.5-1.5c.9 0 1.5.7 1.5 1.5.1.8-.6 1.5-1.5 1.5z"/><path d="m168 7.6c-.9 0-1.5-.7-1.6-1.5s.7-1.5 1.5-1.6 1.5.7 1.6 1.5c0 .9-.7 1.6-1.5 1.6zm0 8.2c-.9 0-1.5-.7-1.6-1.5s.7-1.5 1.5-1.6 1.5.7 1.6 1.5c0 .9-.7 1.6-1.5 1.6zm0 8.3c-.9 0-1.5-.7-1.6-1.5s.7-1.5 1.5-1.6 1.5.7 1.6 1.5c0 .9-.7 1.5-1.5 1.6zm0 8.2c-.9 0-1.5-.7-1.6-1.5s.7-1.5 1.5-1.6 1.5.7 1.6 1.5c0 .9-.7 1.6-1.5 1.6zm0 8.2c-.9 0-1.5-.7-1.6-1.5s.7-1.5 1.5-1.6 1.5.7 1.6 1.5c0 .9-.7 1.6-1.5 1.6zm-8-32.9c-.9 0-1.5-.7-1.5-1.5s.7-1.5 1.5-1.5c.9 0 1.5.7 1.5 1.5 0 .8-.6 1.5-1.5 1.5zm0 8.2c-.9 0-1.5-.7-1.5-1.5s.7-1.5 1.5-1.5c.9 0 1.5.7 1.5 1.5 0 .8-.6 1.5-1.5 1.5zm0 8.2c-.9 0-1.5-.7-1.5-1.5s.6-1.5 1.5-1.5 1.5.7 1.5 1.5c0 .9-.6 1.5-1.5 1.5 0 .1 0 .1 0 0zm0 8.3c-.9 0-1.5-.7-1.5-1.5s.7-1.5 1.5-1.5c.9 0 1.5.7 1.5 1.5 0 .8-.6 1.5-1.5 1.5zm0 8.2c-.9 0-1.5-.7-1.5-1.5s.7-1.5 1.5-1.5c.9 0 1.5.7 1.5 1.5 0 .8-.6 1.5-1.5 1.5zm-8-32.9c-.9 0-1.5-.7-1.5-1.5s.7-1.5 1.5-1.5c.9 0 1.5.7 1.5 1.5.1.8-.6 1.5-1.5 1.5zm0 8.2c-.9 0-1.5-.7-1.5-1.5s.7-1.5 1.5-1.5c.9 0 1.5.7 1.5 1.5.1.8-.6 1.5-1.5 1.5zm0 8.2c-.9 0-1.5-.7-1.5-1.5s.7-1.5 1.5-1.5c.9 0 1.5.7 1.5 1.5.1.9-.6 1.5-1.5 1.5 0 .1 0 .1 0 0zm0 8.3c-.9 0-1.5-.7-1.5-1.5s.7-1.5 1.5-1.5c.9 0 1.5.7 1.5 1.5.1.8-.6 1.5-1.5 1.5zm0 8.2c-.9 0-1.5-.7-1.5-1.5s.7-1.5 1.5-1.5c.9 0 1.5.7 1.5 1.5.1.8-.6 1.5-1.5 1.5zm16 8.1c-.9 0-1.5-.7-1.6-1.5s.7-1.5 1.5-1.6 1.5.7 1.6 1.5c0 .9-.7 1.6-1.5 1.6zm0 8.2c-.9 0-1.5-.7-1.6-1.5s.7-1.5 1.5-1.6 1.5.7 1.6 1.5c0 1-.7 1.6-1.5 1.6 0 .1 0 .1 0 0zm0 8.3c-.9 0-1.5-.7-1.6-1.5s.7-1.5 1.5-1.6 1.5.7 1.6 1.5c0 .9-.7 1.6-1.5 1.6zm0 8.2c-.9 0-1.5-.7-1.6-1.5s.7-1.5 1.5-1.6 1.5.7 1.6 1.5c0 .9-.7 1.6-1.5 1.6zm0 8.2c-.9 0-1.5-.7-1.6-1.5s.7-1.5 1.5-1.6 1.5.7 1.6 1.5c0 .9-.7 1.6-1.5 1.6zm-8-32.9c-.9 0-1.5-.7-1.5-1.5s.7-1.5 1.5-1.5c.9 0 1.5.7 1.5 1.5 0 .8-.6 1.5-1.5 1.5zm0 8.2c-.9 0-1.5-.7-1.5-1.5s.7-1.5 1.5-1.5c.9 0 1.5.7 1.5 1.5 0 .9-.6 1.5-1.5 1.5 0 .1 0 .1 0 0zm0 8.3c-.9 0-1.5-.7-1.5-1.5s.6-1.6 1.5-1.6 1.5.7 1.5 1.5c0 .9-.6 1.6-1.5 1.6zm0 8.2c-.9 0-1.5-.7-1.5-1.5s.7-1.5 1.5-1.5c.9 0 1.5.7 1.5 1.5 0 .8-.6 1.5-1.5 1.5zm0 8.2c-.9 0-1.5-.7-1.5-1.5s.7-1.5 1.5-1.5c.9 0 1.5.7 1.5 1.5 0 .8-.6 1.5-1.5 1.5zm-8-32.9c-.9 0-1.5-.7-1.5-1.5s.7-1.5 1.5-1.5c.9 0 1.5.7 1.5 1.5.1.8-.6 1.5-1.5 1.5zm0 8.2c-.9 0-1.5-.7-1.5-1.5s.7-1.5 1.5-1.5c.9 0 1.5.7 1.5 1.5.1.9-.6 1.5-1.5 1.5 0 .1 0 .1 0 0zm0 8.3c-.9 0-1.5-.7-1.5-1.5s.7-1.6 1.5-1.6c.9 0 1.5.7 1.5 1.5.1.9-.6 1.6-1.5 1.6zm0 8.2c-.9 0-1.5-.7-1.5-1.5s.7-1.5 1.5-1.5c.9 0 1.5.7 1.5 1.5.1.8-.6 1.5-1.5 1.5zm0 8.2c-.9 0-1.5-.7-1.5-1.5s.7-1.5 1.5-1.5c.9 0 1.5.7 1.5 1.5.1.8-.6 1.5-1.5 1.5z"/><path d="m192 7.6c-.9 0-1.5-.7-1.6-1.5s.7-1.5 1.5-1.6 1.5.7 1.6 1.5c0 .9-.7 1.6-1.5 1.6zm0 8.2c-.9 0-1.5-.7-1.6-1.5s.7-1.5 1.5-1.6 1.5.7 1.6 1.5c0 .9-.7 1.6-1.5 1.6zm0 8.3c-.9 0-1.5-.7-1.6-1.5s.7-1.5 1.5-1.6 1.5.7 1.6 1.5c0 .9-.7 1.5-1.5 1.6zm0 8.2c-.9 0-1.5-.7-1.6-1.5s.7-1.5 1.5-1.6 1.5.7 1.6 1.5c0 .9-.7 1.6-1.5 1.6zm0 8.2c-.9 0-1.5-.7-1.6-1.5s.7-1.5 1.5-1.6 1.5.7 1.6 1.5c0 .9-.7 1.6-1.5 1.6zm-8-32.9c-.9 0-1.5-.7-1.5-1.5s.7-1.5 1.5-1.5c.9 0 1.5.7 1.5 1.5 0 .8-.6 1.5-1.5 1.5zm0 8.2c-.9 0-1.5-.7-1.5-1.5s.7-1.5 1.5-1.5c.9 0 1.5.7 1.5 1.5 0 .8-.6 1.5-1.5 1.5zm0 8.2c-.9 0-1.5-.7-1.5-1.5s.6-1.5 1.5-1.5 1.5.7 1.5 1.5c0 .9-.6 1.5-1.5 1.5 0 .1 0 .1 0 0zm0 8.3c-.9 0-1.5-.7-1.5-1.5s.7-1.5 1.5-1.5c.9 0 1.5.7 1.5 1.5 0 .8-.6 1.5-1.5 1.5zm0 8.2c-.9 0-1.5-.7-1.5-1.5s.7-1.5 1.5-1.5c.9 0 1.5.7 1.5 1.5 0 .8-.6 1.5-1.5 1.5zm-8-32.9c-.9 0-1.5-.7-1.5-1.5s.7-1.5 1.5-1.5c.9 0 1.5.7 1.5 1.5.1.8-.6 1.5-1.5 1.5zm0 8.2c-.9 0-1.5-.7-1.5-1.5s.7-1.5 1.5-1.5c.9 0 1.5.7 1.5 1.5.1.8-.6 1.5-1.5 1.5zm0 8.2c-.9 0-1.5-.7-1.5-1.5s.7-1.5 1.5-1.5c.9 0 1.5.7 1.5 1.5.1.9-.6 1.5-1.5 1.5 0 .1 0 .1 0 0zm0 8.3c-.9 0-1.5-.7-1.5-1.5s.7-1.5 1.5-1.5c.9 0 1.5.7 1.5 1.5.1.8-.6 1.5-1.5 1.5zm0 8.2c-.9 0-1.5-.7-1.5-1.5s.7-1.5 1.5-1.5c.9 0 1.5.7 1.5 1.5.1.8-.6 1.5-1.5 1.5zm16 8.1c-.9 0-1.5-.7-1.6-1.5s.7-1.5 1.5-1.6 1.5.7 1.6 1.5c0 .9-.7 1.6-1.5 1.6zm0 8.2c-.9 0-1.5-.7-1.6-1.5s.7-1.5 1.5-1.6 1.5.7 1.6 1.5c0 1-.7 1.6-1.5 1.6 0 .1 0 .1 0 0zm0 8.3c-.9 0-1.5-.7-1.6-1.5s.7-1.5 1.5-1.6 1.5.7 1.6 1.5c0 .9-.7 1.6-1.5 1.6zm0 8.2c-.9 0-1.5-.7-1.6-1.5s.7-1.5 1.5-1.6 1.5.7 1.6 1.5c0 .9-.7 1.6-1.5 1.6zm0 8.2c-.9 0-1.5-.7-1.6-1.5s.7-1.5 1.5-1.6 1.5.7 1.6 1.5c0 .9-.7 1.6-1.5 1.6zm-8-32.9c-.9 0-1.5-.7-1.5-1.5s.7-1.5 1.5-1.5c.9 0 1.5.7 1.5 1.5 0 .8-.6 1.5-1.5 1.5zm0 8.2c-.9 0-1.5-.7-1.5-1.5s.7-1.5 1.5-1.5c.9 0 1.5.7 1.5 1.5 0 .9-.6 1.5-1.5 1.5 0 .1 0 .1 0 0zm0 8.3c-.9 0-1.5-.7-1.5-1.5s.6-1.6 1.5-1.6 1.5.7 1.5 1.5c0 .9-.6 1.6-1.5 1.6zm0 8.2c-.9 0-1.5-.7-1.5-1.5s.7-1.5 1.5-1.5c.9 0 1.5.7 1.5 1.5 0 .8-.6 1.5-1.5 1.5zm0 8.2c-.9 0-1.5-.7-1.5-1.5s.7-1.5 1.5-1.5c.9 0 1.5.7 1.5 1.5 0 .8-.6 1.5-1.5 1.5zm-8-32.9c-.9 0-1.5-.7-1.5-1.5s.7-1.5 1.5-1.5c.9 0 1.5.7 1.5 1.5.1.8-.6 1.5-1.5 1.5zm0 8.2c-.9 0-1.5-.7-1.5-1.5s.7-1.5 1.5-1.5c.9 0 1.5.7 1.5 1.5.1.9-.6 1.5-1.5 1.5 0 .1 0 .1 0 0zm0 8.3c-.9 0-1.5-.7-1.5-1.5s.7-1.6 1.5-1.6c.9 0 1.5.7 1.5 1.5.1.9-.6 1.6-1.5 1.6zm0 8.2c-.9 0-1.5-.7-1.5-1.5s.7-1.5 1.5-1.5c.9 0 1.5.7 1.5 1.5.1.8-.6 1.5-1.5 1.5zm0 8.2c-.9 0-1.5-.7-1.5-1.5s.7-1.5 1.5-1.5c.9 0 1.5.7 1.5 1.5.1.8-.6 1.5-1.5 1.5z"/><path d="m24 89.6c-.9 0-1.5-.7-1.6-1.5s.7-1.5 1.5-1.6 1.5.7 1.6 1.5c0 .9-.7 1.6-1.5 1.6zm0 8.2c-.9 0-1.5-.7-1.6-1.5s.7-1.5 1.5-1.6 1.5.7 1.6 1.5c0 .9-.7 1.6-1.5 1.6zm0 8.3c-.9 0-1.5-.7-1.6-1.5s.7-1.5 1.5-1.6 1.5.7 1.6 1.5c0 .9-.7 1.5-1.5 1.6zm0 8.2c-.9 0-1.5-.7-1.6-1.5s.7-1.5 1.5-1.6 1.5.7 1.6 1.5c0 .9-.7 1.6-1.5 1.6zm0 8.2c-.9 0-1.5-.7-1.6-1.5s.7-1.5 1.5-1.6 1.5.7 1.6 1.5c0 .9-.7 1.6-1.5 1.6zm-8-32.9c-.9 0-1.5-.7-1.5-1.5s.7-1.5 1.5-1.5c.9 0 1.5.7 1.5 1.5 0 .8-.6 1.5-1.5 1.5zm0 8.2c-.9 0-1.5-.7-1.5-1.5s.7-1.5 1.5-1.5c.9 0 1.5.7 1.5 1.5 0 .8-.6 1.5-1.5 1.5zm0 8.2c-.9 0-1.5-.7-1.5-1.5s.6-1.5 1.5-1.5 1.5.7 1.5 1.5c0 .9-.6 1.5-1.5 1.5 0 .1 0 .1 0 0zm0 8.3c-.9 0-1.5-.7-1.5-1.5s.7-1.5 1.5-1.5c.9 0 1.5.7 1.5 1.5 0 .8-.6 1.5-1.5 1.5zm0 8.2c-.9 0-1.5-.7-1.5-1.5s.7-1.5 1.5-1.5c.9 0 1.5.7 1.5 1.5 0 .8-.6 1.5-1.5 1.5zm-8-32.9c-.9 0-1.5-.7-1.5-1.5s.7-1.5 1.5-1.5c.9 0 1.5.7 1.5 1.5.1.8-.6 1.5-1.5 1.5zm0 8.2c-.9 0-1.5-.7-1.5-1.5s.7-1.5 1.5-1.5c.9 0 1.5.7 1.5 1.5.1.8-.6 1.5-1.5 1.5zm0 8.2c-.9 0-1.5-.7-1.5-1.5s.7-1.5 1.5-1.5c.9 0 1.5.7 1.5 1.5.1.9-.6 1.5-1.5 1.5 0 .1 0 .1 0 0zm0 8.3c-.9 0-1.5-.7-1.5-1.5s.7-1.5 1.5-1.5c.9 0 1.5.7 1.5 1.5.1.8-.6 1.5-1.5 1.5zm0 8.2c-.9 0-1.5-.7-1.5-1.5s.7-1.5 1.5-1.5c.9 0 1.5.7 1.5 1.5.1.8-.6 1.5-1.5 1.5zm16 8.1c-.9 0-1.5-.7-1.6-1.5s.7-1.5 1.5-1.6 1.5.7 1.6 1.5c0 .9-.7 1.6-1.5 1.6zm0 8.2c-.9 0-1.5-.7-1.6-1.5s.7-1.5 1.5-1.6 1.5.7 1.6 1.5c0 1-.7 1.6-1.5 1.6 0 .1 0 .1 0 0zm0 8.3c-.9 0-1.5-.7-1.6-1.5s.7-1.5 1.5-1.6 1.5.7 1.6 1.5c0 .9-.7 1.6-1.5 1.6zm0 8.2c-.9 0-1.5-.7-1.6-1.5s.7-1.5 1.5-1.6 1.5.7 1.6 1.5c0 .9-.7 1.6-1.5 1.6zm0 8.2c-.9 0-1.5-.7-1.6-1.5s.7-1.5 1.5-1.6 1.5.7 1.6 1.5c0 .9-.7 1.6-1.5 1.6zm-8-32.9c-.9 0-1.5-.7-1.5-1.5s.7-1.5 1.5-1.5c.9 0 1.5.7 1.5 1.5 0 .8-.6 1.5-1.5 1.5zm0 8.2c-.9 0-1.5-.7-1.5-1.5s.7-1.5 1.5-1.5c.9 0 1.5.7 1.5 1.5 0 .9-.6 1.5-1.5 1.5 0 .1 0 .1 0 0zm0 8.3c-.9 0-1.5-.7-1.5-1.5s.6-1.6 1.5-1.6 1.5.7 1.5 1.5c0 .9-.6 1.6-1.5 1.6zm0 8.2c-.9 0-1.5-.7-1.5-1.5s.7-1.5 1.5-1.5c.9 0 1.5.7 1.5 1.5 0 .8-.6 1.5-1.5 1.5zm0 8.2c-.9 0-1.5-.7-1.5-1.5s.7-1.5 1.5-1.5c.9 0 1.5.7 1.5 1.5 0 .8-.6 1.5-1.5 1.5zm-8-32.9c-.9 0-1.5-.7-1.5-1.5s.7-1.5 1.5-1.5c.9 0 1.5.7 1.5 1.5.1.8-.6 1.5-1.5 1.5zm0 8.2c-.9 0-1.5-.7-1.5-1.5s.7-1.5 1.5-1.5c.9 0 1.5.7 1.5 1.5.1.9-.6 1.5-1.5 1.5 0 .1 0 .1 0 0zm0 8.3c-.9 0-1.5-.7-1.5-1.5s.7-1.6 1.5-1.6c.9 0 1.5.7 1.5 1.5.1.9-.6 1.6-1.5 1.6zm0 8.2c-.9 0-1.5-.7-1.5-1.5s.7-1.5 1.5-1.5c.9 0 1.5.7 1.5 1.5.1.8-.6 1.5-1.5 1.5zm0 8.2c-.9 0-1.5-.7-1.5-1.5s.7-1.5 1.5-1.5c.9 0 1.5.7 1.5 1.5.1.8-.6 1.5-1.5 1.5z"/><path d="m48 89.6c-.9 0-1.5-.7-1.6-1.5s.7-1.5 1.5-1.6 1.5.7 1.6 1.5c0 .9-.7 1.6-1.5 1.6zm0 8.2c-.9 0-1.5-.7-1.6-1.5s.7-1.5 1.5-1.6 1.5.7 1.6 1.5c0 .9-.7 1.6-1.5 1.6zm0 8.3c-.9 0-1.5-.7-1.6-1.5s.7-1.5 1.5-1.6 1.5.7 1.6 1.5c0 .9-.7 1.5-1.5 1.6zm0 8.2c-.9 0-1.5-.7-1.6-1.5s.7-1.5 1.5-1.6 1.5.7 1.6 1.5c0 .9-.7 1.6-1.5 1.6zm0 8.2c-.9 0-1.5-.7-1.6-1.5s.7-1.5 1.5-1.6 1.5.7 1.6 1.5c0 .9-.7 1.6-1.5 1.6zm-8-32.9c-.9 0-1.5-.7-1.5-1.5s.7-1.5 1.5-1.5c.9 0 1.5.7 1.5 1.5 0 .8-.6 1.5-1.5 1.5zm0 8.2c-.9 0-1.5-.7-1.5-1.5s.7-1.5 1.5-1.5c.9 0 1.5.7 1.5 1.5 0 .8-.6 1.5-1.5 1.5zm0 8.2c-.9 0-1.5-.7-1.5-1.5s.6-1.5 1.5-1.5 1.5.7 1.5 1.5c0 .9-.6 1.5-1.5 1.5 0 .1 0 .1 0 0zm0 8.3c-.9 0-1.5-.7-1.5-1.5s.7-1.5 1.5-1.5c.9 0 1.5.7 1.5 1.5 0 .8-.6 1.5-1.5 1.5zm0 8.2c-.9 0-1.5-.7-1.5-1.5s.7-1.5 1.5-1.5c.9 0 1.5.7 1.5 1.5 0 .8-.6 1.5-1.5 1.5zm-8-32.9c-.9 0-1.5-.7-1.5-1.5s.7-1.5 1.5-1.5c.9 0 1.5.7 1.5 1.5.1.8-.6 1.5-1.5 1.5zm0 8.2c-.9 0-1.5-.7-1.5-1.5s.7-1.5 1.5-1.5c.9 0 1.5.7 1.5 1.5.1.8-.6 1.5-1.5 1.5zm0 8.2c-.9 0-1.5-.7-1.5-1.5s.7-1.5 1.5-1.5c.9 0 1.5.7 1.5 1.5.1.9-.6 1.5-1.5 1.5 0 .1 0 .1 0 0zm0 8.3c-.9 0-1.5-.7-1.5-1.5s.7-1.5 1.5-1.5c.9 0 1.5.7 1.5 1.5.1.8-.6 1.5-1.5 1.5zm0 8.2c-.9 0-1.5-.7-1.5-1.5s.7-1.5 1.5-1.5c.9 0 1.5.7 1.5 1.5.1.8-.6 1.5-1.5 1.5zm16 8.1c-.9 0-1.5-.7-1.6-1.5s.7-1.5 1.5-1.6 1.5.7 1.6 1.5c0 .9-.7 1.6-1.5 1.6zm0 8.2c-.9 0-1.5-.7-1.6-1.5s.7-1.5 1.5-1.6 1.5.7 1.6 1.5c0 1-.7 1.6-1.5 1.6 0 .1 0 .1 0 0zm0 8.3c-.9 0-1.5-.7-1.6-1.5s.7-1.5 1.5-1.6 1.5.7 1.6 1.5c0 .9-.7 1.6-1.5 1.6zm0 8.2c-.9 0-1.5-.7-1.6-1.5s.7-1.5 1.5-1.6 1.5.7 1.6 1.5c0 .9-.7 1.6-1.5 1.6zm0 8.2c-.9 0-1.5-.7-1.6-1.5s.7-1.5 1.5-1.6 1.5.7 1.6 1.5c0 .9-.7 1.6-1.5 1.6zm-8-32.9c-.9 0-1.5-.7-1.5-1.5s.7-1.5 1.5-1.5c.9 0 1.5.7 1.5 1.5 0 .8-.6 1.5-1.5 1.5zm0 8.2c-.9 0-1.5-.7-1.5-1.5s.7-1.5 1.5-1.5c.9 0 1.5.7 1.5 1.5 0 .9-.6 1.5-1.5 1.5 0 .1 0 .1 0 0zm0 8.3c-.9 0-1.5-.7-1.5-1.5s.6-1.6 1.5-1.6 1.5.7 1.5 1.5c0 .9-.6 1.6-1.5 1.6zm0 8.2c-.9 0-1.5-.7-1.5-1.5s.7-1.5 1.5-1.5c.9 0 1.5.7 1.5 1.5 0 .8-.6 1.5-1.5 1.5zm0 8.2c-.9 0-1.5-.7-1.5-1.5s.7-1.5 1.5-1.5c.9 0 1.5.7 1.5 1.5 0 .8-.6 1.5-1.5 1.5zm-8-32.9c-.9 0-1.5-.7-1.5-1.5s.7-1.5 1.5-1.5c.9 0 1.5.7 1.5 1.5.1.8-.6 1.5-1.5 1.5zm0 8.2c-.9 0-1.5-.7-1.5-1.5s.7-1.5 1.5-1.5c.9 0 1.5.7 1.5 1.5.1.9-.6 1.5-1.5 1.5 0 .1 0 .1 0 0zm0 8.3c-.9 0-1.5-.7-1.5-1.5s.7-1.6 1.5-1.6c.9 0 1.5.7 1.5 1.5.1.9-.6 1.6-1.5 1.6zm0 8.2c-.9 0-1.5-.7-1.5-1.5s.7-1.5 1.5-1.5c.9 0 1.5.7 1.5 1.5.1.8-.6 1.5-1.5 1.5zm0 8.2c-.9 0-1.5-.7-1.5-1.5s.7-1.5 1.5-1.5c.9 0 1.5.7 1.5 1.5.1.8-.6 1.5-1.5 1.5z"/><path d="m72 89.6c-.9 0-1.5-.7-1.6-1.5s.7-1.5 1.5-1.6 1.5.7 1.6 1.5c0 .9-.7 1.6-1.5 1.6zm0 8.2c-.9 0-1.5-.7-1.6-1.5s.7-1.5 1.5-1.6 1.5.7 1.6 1.5c0 .9-.7 1.6-1.5 1.6zm0 8.3c-.9 0-1.5-.7-1.6-1.5s.7-1.5 1.5-1.6 1.5.7 1.6 1.5c0 .9-.7 1.5-1.5 1.6zm0 8.2c-.9 0-1.5-.7-1.6-1.5s.7-1.5 1.5-1.6 1.5.7 1.6 1.5c0 .9-.7 1.6-1.5 1.6zm0 8.2c-.9 0-1.5-.7-1.6-1.5s.7-1.5 1.5-1.6 1.5.7 1.6 1.5c0 .9-.7 1.6-1.5 1.6zm-8-32.9c-.9 0-1.5-.7-1.5-1.5s.7-1.5 1.5-1.5c.9 0 1.5.7 1.5 1.5 0 .8-.6 1.5-1.5 1.5zm0 8.2c-.9 0-1.5-.7-1.5-1.5s.7-1.5 1.5-1.5c.9 0 1.5.7 1.5 1.5 0 .8-.6 1.5-1.5 1.5zm0 8.2c-.9 0-1.5-.7-1.5-1.5s.6-1.5 1.5-1.5 1.5.7 1.5 1.5c0 .9-.6 1.5-1.5 1.5 0 .1 0 .1 0 0zm0 8.3c-.9 0-1.5-.7-1.5-1.5s.7-1.5 1.5-1.5c.9 0 1.5.7 1.5 1.5 0 .8-.6 1.5-1.5 1.5zm0 8.2c-.9 0-1.5-.7-1.5-1.5s.7-1.5 1.5-1.5c.9 0 1.5.7 1.5 1.5 0 .8-.6 1.5-1.5 1.5zm-8-32.9c-.9 0-1.5-.7-1.5-1.5s.7-1.5 1.5-1.5c.9 0 1.5.7 1.5 1.5.1.8-.6 1.5-1.5 1.5zm0 8.2c-.9 0-1.5-.7-1.5-1.5s.7-1.5 1.5-1.5c.9 0 1.5.7 1.5 1.5.1.8-.6 1.5-1.5 1.5zm0 8.2c-.9 0-1.5-.7-1.5-1.5s.7-1.5 1.5-1.5c.9 0 1.5.7 1.5 1.5.1.9-.6 1.5-1.5 1.5 0 .1 0 .1 0 0zm0 8.3c-.9 0-1.5-.7-1.5-1.5s.7-1.5 1.5-1.5c.9 0 1.5.7 1.5 1.5.1.8-.6 1.5-1.5 1.5zm0 8.2c-.9 0-1.5-.7-1.5-1.5s.7-1.5 1.5-1.5c.9 0 1.5.7 1.5 1.5.1.8-.6 1.5-1.5 1.5zm16 8.1c-.9 0-1.5-.7-1.6-1.5s.7-1.5 1.5-1.6 1.5.7 1.6 1.5c0 .9-.7 1.6-1.5 1.6zm0 8.2c-.9 0-1.5-.7-1.6-1.5s.7-1.5 1.5-1.6 1.5.7 1.6 1.5c0 1-.7 1.6-1.5 1.6 0 .1 0 .1 0 0zm0 8.3c-.9 0-1.5-.7-1.6-1.5s.7-1.5 1.5-1.6 1.5.7 1.6 1.5c0 .9-.7 1.6-1.5 1.6zm0 8.2c-.9 0-1.5-.7-1.6-1.5s.7-1.5 1.5-1.6 1.5.7 1.6 1.5c0 .9-.7 1.6-1.5 1.6zm0 8.2c-.9 0-1.5-.7-1.6-1.5s.7-1.5 1.5-1.6 1.5.7 1.6 1.5c0 .9-.7 1.6-1.5 1.6zm-8-32.9c-.9 0-1.5-.7-1.5-1.5s.7-1.5 1.5-1.5c.9 0 1.5.7 1.5 1.5 0 .8-.6 1.5-1.5 1.5zm0 8.2c-.9 0-1.5-.7-1.5-1.5s.7-1.5 1.5-1.5c.9 0 1.5.7 1.5 1.5 0 .9-.6 1.5-1.5 1.5 0 .1 0 .1 0 0zm0 8.3c-.9 0-1.5-.7-1.5-1.5s.6-1.6 1.5-1.6 1.5.7 1.5 1.5c0 .9-.6 1.6-1.5 1.6zm0 8.2c-.9 0-1.5-.7-1.5-1.5s.7-1.5 1.5-1.5c.9 0 1.5.7 1.5 1.5 0 .8-.6 1.5-1.5 1.5zm0 8.2c-.9 0-1.5-.7-1.5-1.5s.7-1.5 1.5-1.5c.9 0 1.5.7 1.5 1.5 0 .8-.6 1.5-1.5 1.5zm-8-32.9c-.9 0-1.5-.7-1.5-1.5s.7-1.5 1.5-1.5c.9 0 1.5.7 1.5 1.5.1.8-.6 1.5-1.5 1.5zm0 8.2c-.9 0-1.5-.7-1.5-1.5s.7-1.5 1.5-1.5c.9 0 1.5.7 1.5 1.5.1.9-.6 1.5-1.5 1.5 0 .1 0 .1 0 0zm0 8.3c-.9 0-1.5-.7-1.5-1.5s.7-1.6 1.5-1.6c.9 0 1.5.7 1.5 1.5.1.9-.6 1.6-1.5 1.6zm0 8.2c-.9 0-1.5-.7-1.5-1.5s.7-1.5 1.5-1.5c.9 0 1.5.7 1.5 1.5.1.8-.6 1.5-1.5 1.5zm0 8.2c-.9 0-1.5-.7-1.5-1.5s.7-1.5 1.5-1.5c.9 0 1.5.7 1.5 1.5.1.8-.6 1.5-1.5 1.5z"/><path d="m96 89.6c-.9 0-1.5-.7-1.6-1.5s.7-1.5 1.5-1.6 1.5.7 1.6 1.5c0 .9-.7 1.6-1.5 1.6zm0 8.2c-.9 0-1.5-.7-1.6-1.5s.7-1.5 1.5-1.6 1.5.7 1.6 1.5c0 .9-.7 1.6-1.5 1.6zm0 8.3c-.9 0-1.5-.7-1.6-1.5s.7-1.5 1.5-1.6 1.5.7 1.6 1.5c0 .9-.7 1.5-1.5 1.6zm0 8.2c-.9 0-1.5-.7-1.6-1.5s.7-1.5 1.5-1.6 1.5.7 1.6 1.5c0 .9-.7 1.6-1.5 1.6zm0 8.2c-.9 0-1.5-.7-1.6-1.5s.7-1.5 1.5-1.6 1.5.7 1.6 1.5c0 .9-.7 1.6-1.5 1.6zm-8-32.9c-.9 0-1.5-.7-1.5-1.5s.7-1.5 1.5-1.5c.9 0 1.5.7 1.5 1.5 0 .8-.6 1.5-1.5 1.5zm0 8.2c-.9 0-1.5-.7-1.5-1.5s.7-1.5 1.5-1.5c.9 0 1.5.7 1.5 1.5 0 .8-.6 1.5-1.5 1.5zm0 8.2c-.9 0-1.5-.7-1.5-1.5s.6-1.5 1.5-1.5 1.5.7 1.5 1.5c0 .9-.6 1.5-1.5 1.5 0 .1 0 .1 0 0zm0 8.3c-.9 0-1.5-.7-1.5-1.5s.7-1.5 1.5-1.5c.9 0 1.5.7 1.5 1.5 0 .8-.6 1.5-1.5 1.5zm0 8.2c-.9 0-1.5-.7-1.5-1.5s.7-1.5 1.5-1.5c.9 0 1.5.7 1.5 1.5 0 .8-.6 1.5-1.5 1.5zm-8-32.9c-.9 0-1.5-.7-1.5-1.5s.7-1.5 1.5-1.5c.9 0 1.5.7 1.5 1.5.1.8-.6 1.5-1.5 1.5zm0 8.2c-.9 0-1.5-.7-1.5-1.5s.7-1.5 1.5-1.5c.9 0 1.5.7 1.5 1.5.1.8-.6 1.5-1.5 1.5zm0 8.2c-.9 0-1.5-.7-1.5-1.5s.7-1.5 1.5-1.5c.9 0 1.5.7 1.5 1.5.1.9-.6 1.5-1.5 1.5 0 .1 0 .1 0 0zm0 8.3c-.9 0-1.5-.7-1.5-1.5s.7-1.5 1.5-1.5c.9 0 1.5.7 1.5 1.5.1.8-.6 1.5-1.5 1.5zm0 8.2c-.9 0-1.5-.7-1.5-1.5s.7-1.5 1.5-1.5c.9 0 1.5.7 1.5 1.5.1.8-.6 1.5-1.5 1.5zm16 8.1c-.9 0-1.5-.7-1.6-1.5s.7-1.5 1.5-1.6 1.5.7 1.6 1.5c0 .9-.7 1.6-1.5 1.6zm0 8.2c-.9 0-1.5-.7-1.6-1.5s.7-1.5 1.5-1.6 1.5.7 1.6 1.5c0 1-.7 1.6-1.5 1.6 0 .1 0 .1 0 0zm0 8.3c-.9 0-1.5-.7-1.6-1.5s.7-1.5 1.5-1.6 1.5.7 1.6 1.5c0 .9-.7 1.6-1.5 1.6zm0 8.2c-.9 0-1.5-.7-1.6-1.5s.7-1.5 1.5-1.6 1.5.7 1.6 1.5c0 .9-.7 1.6-1.5 1.6zm0 8.2c-.9 0-1.5-.7-1.6-1.5s.7-1.5 1.5-1.6 1.5.7 1.6 1.5c0 .9-.7 1.6-1.5 1.6zm-8-32.9c-.9 0-1.5-.7-1.5-1.5s.7-1.5 1.5-1.5c.9 0 1.5.7 1.5 1.5 0 .8-.6 1.5-1.5 1.5zm0 8.2c-.9 0-1.5-.7-1.5-1.5s.7-1.5 1.5-1.5c.9 0 1.5.7 1.5 1.5 0 .9-.6 1.5-1.5 1.5 0 .1 0 .1 0 0zm0 8.3c-.9 0-1.5-.7-1.5-1.5s.6-1.6 1.5-1.6 1.5.7 1.5 1.5c0 .9-.6 1.6-1.5 1.6zm0 8.2c-.9 0-1.5-.7-1.5-1.5s.7-1.5 1.5-1.5c.9 0 1.5.7 1.5 1.5 0 .8-.6 1.5-1.5 1.5zm0 8.2c-.9 0-1.5-.7-1.5-1.5s.7-1.5 1.5-1.5c.9 0 1.5.7 1.5 1.5 0 .8-.6 1.5-1.5 1.5zm-8-32.9c-.9 0-1.5-.7-1.5-1.5s.7-1.5 1.5-1.5c.9 0 1.5.7 1.5 1.5.1.8-.6 1.5-1.5 1.5zm0 8.2c-.9 0-1.5-.7-1.5-1.5s.7-1.5 1.5-1.5c.9 0 1.5.7 1.5 1.5.1.9-.6 1.5-1.5 1.5 0 .1 0 .1 0 0zm0 8.3c-.9 0-1.5-.7-1.5-1.5s.7-1.6 1.5-1.6c.9 0 1.5.7 1.5 1.5.1.9-.6 1.6-1.5 1.6zm0 8.2c-.9 0-1.5-.7-1.5-1.5s.7-1.5 1.5-1.5c.9 0 1.5.7 1.5 1.5.1.8-.6 1.5-1.5 1.5zm0 8.2c-.9 0-1.5-.7-1.5-1.5s.7-1.5 1.5-1.5c.9 0 1.5.7 1.5 1.5.1.8-.6 1.5-1.5 1.5z"/><path d="m120 89.6c-.9 0-1.5-.7-1.6-1.5s.7-1.5 1.5-1.6 1.5.7 1.6 1.5c0 .9-.7 1.6-1.5 1.6zm0 8.2c-.9 0-1.5-.7-1.6-1.5s.7-1.5 1.5-1.6 1.5.7 1.6 1.5c0 .9-.7 1.6-1.5 1.6zm0 8.3c-.9 0-1.5-.7-1.6-1.5s.7-1.5 1.5-1.6 1.5.7 1.6 1.5c0 .9-.7 1.5-1.5 1.6zm0 8.2c-.9 0-1.5-.7-1.6-1.5s.7-1.5 1.5-1.6 1.5.7 1.6 1.5c0 .9-.7 1.6-1.5 1.6zm0 8.2c-.9 0-1.5-.7-1.6-1.5s.7-1.5 1.5-1.6 1.5.7 1.6 1.5c0 .9-.7 1.6-1.5 1.6zm-8-32.9c-.9 0-1.5-.7-1.5-1.5s.7-1.5 1.5-1.5c.9 0 1.5.7 1.5 1.5 0 .8-.6 1.5-1.5 1.5zm0 8.2c-.9 0-1.5-.7-1.5-1.5s.7-1.5 1.5-1.5c.9 0 1.5.7 1.5 1.5 0 .8-.6 1.5-1.5 1.5zm0 8.2c-.9 0-1.5-.7-1.5-1.5s.6-1.5 1.5-1.5 1.5.7 1.5 1.5c0 .9-.6 1.5-1.5 1.5 0 .1 0 .1 0 0zm0 8.3c-.9 0-1.5-.7-1.5-1.5s.7-1.5 1.5-1.5c.9 0 1.5.7 1.5 1.5 0 .8-.6 1.5-1.5 1.5zm0 8.2c-.9 0-1.5-.7-1.5-1.5s.7-1.5 1.5-1.5c.9 0 1.5.7 1.5 1.5 0 .8-.6 1.5-1.5 1.5zm-8-32.9c-.9 0-1.5-.7-1.5-1.5s.7-1.5 1.5-1.5c.9 0 1.5.7 1.5 1.5.1.8-.6 1.5-1.5 1.5zm0 8.2c-.9 0-1.5-.7-1.5-1.5s.7-1.5 1.5-1.5c.9 0 1.5.7 1.5 1.5.1.8-.6 1.5-1.5 1.5zm0 8.2c-.9 0-1.5-.7-1.5-1.5s.7-1.5 1.5-1.5c.9 0 1.5.7 1.5 1.5.1.9-.6 1.5-1.5 1.5 0 .1 0 .1 0 0zm0 8.3c-.9 0-1.5-.7-1.5-1.5s.7-1.5 1.5-1.5c.9 0 1.5.7 1.5 1.5.1.8-.6 1.5-1.5 1.5zm0 8.2c-.9 0-1.5-.7-1.5-1.5s.7-1.5 1.5-1.5c.9 0 1.5.7 1.5 1.5.1.8-.6 1.5-1.5 1.5zm16 8.1c-.9 0-1.5-.7-1.6-1.5s.7-1.5 1.5-1.6 1.5.7 1.6 1.5c0 .9-.7 1.6-1.5 1.6zm0 8.2c-.9 0-1.5-.7-1.6-1.5s.7-1.5 1.5-1.6 1.5.7 1.6 1.5c0 1-.7 1.6-1.5 1.6 0 .1 0 .1 0 0zm0 8.3c-.9 0-1.5-.7-1.6-1.5s.7-1.5 1.5-1.6 1.5.7 1.6 1.5c0 .9-.7 1.6-1.5 1.6zm0 8.2c-.9 0-1.5-.7-1.6-1.5s.7-1.5 1.5-1.6 1.5.7 1.6 1.5c0 .9-.7 1.6-1.5 1.6zm0 8.2c-.9 0-1.5-.7-1.6-1.5s.7-1.5 1.5-1.6 1.5.7 1.6 1.5c0 .9-.7 1.6-1.5 1.6zm-8-32.9c-.9 0-1.5-.7-1.5-1.5s.7-1.5 1.5-1.5c.9 0 1.5.7 1.5 1.5 0 .8-.6 1.5-1.5 1.5zm0 8.2c-.9 0-1.5-.7-1.5-1.5s.7-1.5 1.5-1.5c.9 0 1.5.7 1.5 1.5 0 .9-.6 1.5-1.5 1.5 0 .1 0 .1 0 0zm0 8.3c-.9 0-1.5-.7-1.5-1.5s.6-1.6 1.5-1.6 1.5.7 1.5 1.5c0 .9-.6 1.6-1.5 1.6zm0 8.2c-.9 0-1.5-.7-1.5-1.5s.7-1.5 1.5-1.5c.9 0 1.5.7 1.5 1.5 0 .8-.6 1.5-1.5 1.5zm0 8.2c-.9 0-1.5-.7-1.5-1.5s.7-1.5 1.5-1.5c.9 0 1.5.7 1.5 1.5 0 .8-.6 1.5-1.5 1.5zm-8-32.9c-.9 0-1.5-.7-1.5-1.5s.7-1.5 1.5-1.5c.9 0 1.5.7 1.5 1.5.1.8-.6 1.5-1.5 1.5zm0 8.2c-.9 0-1.5-.7-1.5-1.5s.7-1.5 1.5-1.5c.9 0 1.5.7 1.5 1.5.1.9-.6 1.5-1.5 1.5 0 .1 0 .1 0 0zm0 8.3c-.9 0-1.5-.7-1.5-1.5s.7-1.6 1.5-1.6c.9 0 1.5.7 1.5 1.5.1.9-.6 1.6-1.5 1.6zm0 8.2c-.9 0-1.5-.7-1.5-1.5s.7-1.5 1.5-1.5c.9 0 1.5.7 1.5 1.5.1.8-.6 1.5-1.5 1.5zm0 8.2c-.9 0-1.5-.7-1.5-1.5s.7-1.5 1.5-1.5c.9 0 1.5.7 1.5 1.5.1.8-.6 1.5-1.5 1.5z"/><path d="m144 89.6c-.9 0-1.5-.7-1.6-1.5s.7-1.5 1.5-1.6 1.5.7 1.6 1.5c0 .9-.7 1.6-1.5 1.6zm0 8.2c-.9 0-1.5-.7-1.6-1.5s.7-1.5 1.5-1.6 1.5.7 1.6 1.5c0 .9-.7 1.6-1.5 1.6zm0 8.3c-.9 0-1.5-.7-1.6-1.5s.7-1.5 1.5-1.6 1.5.7 1.6 1.5c0 .9-.7 1.5-1.5 1.6zm0 8.2c-.9 0-1.5-.7-1.6-1.5s.7-1.5 1.5-1.6 1.5.7 1.6 1.5c0 .9-.7 1.6-1.5 1.6zm0 8.2c-.9 0-1.5-.7-1.6-1.5s.7-1.5 1.5-1.6 1.5.7 1.6 1.5c0 .9-.7 1.6-1.5 1.6zm-8-32.9c-.9 0-1.5-.7-1.5-1.5s.7-1.5 1.5-1.5c.9 0 1.5.7 1.5 1.5 0 .8-.6 1.5-1.5 1.5zm0 8.2c-.9 0-1.5-.7-1.5-1.5s.7-1.5 1.5-1.5c.9 0 1.5.7 1.5 1.5 0 .8-.6 1.5-1.5 1.5zm0 8.2c-.9 0-1.5-.7-1.5-1.5s.6-1.5 1.5-1.5 1.5.7 1.5 1.5c0 .9-.6 1.5-1.5 1.5 0 .1 0 .1 0 0zm0 8.3c-.9 0-1.5-.7-1.5-1.5s.7-1.5 1.5-1.5c.9 0 1.5.7 1.5 1.5 0 .8-.6 1.5-1.5 1.5zm0 8.2c-.9 0-1.5-.7-1.5-1.5s.7-1.5 1.5-1.5c.9 0 1.5.7 1.5 1.5 0 .8-.6 1.5-1.5 1.5zm-8-32.9c-.9 0-1.5-.7-1.5-1.5s.7-1.5 1.5-1.5c.9 0 1.5.7 1.5 1.5.1.8-.6 1.5-1.5 1.5zm0 8.2c-.9 0-1.5-.7-1.5-1.5s.7-1.5 1.5-1.5c.9 0 1.5.7 1.5 1.5.1.8-.6 1.5-1.5 1.5zm0 8.2c-.9 0-1.5-.7-1.5-1.5s.7-1.5 1.5-1.5c.9 0 1.5.7 1.5 1.5.1.9-.6 1.5-1.5 1.5 0 .1 0 .1 0 0zm0 8.3c-.9 0-1.5-.7-1.5-1.5s.7-1.5 1.5-1.5c.9 0 1.5.7 1.5 1.5.1.8-.6 1.5-1.5 1.5zm0 8.2c-.9 0-1.5-.7-1.5-1.5s.7-1.5 1.5-1.5c.9 0 1.5.7 1.5 1.5.1.8-.6 1.5-1.5 1.5zm16 8.1c-.9 0-1.5-.7-1.6-1.5s.7-1.5 1.5-1.6 1.5.7 1.6 1.5c0 .9-.7 1.6-1.5 1.6zm0 8.2c-.9 0-1.5-.7-1.6-1.5s.7-1.5 1.5-1.6 1.5.7 1.6 1.5c0 1-.7 1.6-1.5 1.6 0 .1 0 .1 0 0zm0 8.3c-.9 0-1.5-.7-1.6-1.5s.7-1.5 1.5-1.6 1.5.7 1.6 1.5c0 .9-.7 1.6-1.5 1.6zm0 8.2c-.9 0-1.5-.7-1.6-1.5s.7-1.5 1.5-1.6 1.5.7 1.6 1.5c0 .9-.7 1.6-1.5 1.6zm0 8.2c-.9 0-1.5-.7-1.6-1.5s.7-1.5 1.5-1.6 1.5.7 1.6 1.5c0 .9-.7 1.6-1.5 1.6zm-8-32.9c-.9 0-1.5-.7-1.5-1.5s.7-1.5 1.5-1.5c.9 0 1.5.7 1.5 1.5 0 .8-.6 1.5-1.5 1.5zm0 8.2c-.9 0-1.5-.7-1.5-1.5s.7-1.5 1.5-1.5c.9 0 1.5.7 1.5 1.5 0 .9-.6 1.5-1.5 1.5 0 .1 0 .1 0 0zm0 8.3c-.9 0-1.5-.7-1.5-1.5s.6-1.6 1.5-1.6 1.5.7 1.5 1.5c0 .9-.6 1.6-1.5 1.6zm0 8.2c-.9 0-1.5-.7-1.5-1.5s.7-1.5 1.5-1.5c.9 0 1.5.7 1.5 1.5 0 .8-.6 1.5-1.5 1.5zm0 8.2c-.9 0-1.5-.7-1.5-1.5s.7-1.5 1.5-1.5c.9 0 1.5.7 1.5 1.5 0 .8-.6 1.5-1.5 1.5zm-8-32.9c-.9 0-1.5-.7-1.5-1.5s.7-1.5 1.5-1.5c.9 0 1.5.7 1.5 1.5.1.8-.6 1.5-1.5 1.5zm0 8.2c-.9 0-1.5-.7-1.5-1.5s.7-1.5 1.5-1.5c.9 0 1.5.7 1.5 1.5.1.9-.6 1.5-1.5 1.5 0 .1 0 .1 0 0zm0 8.3c-.9 0-1.5-.7-1.5-1.5s.7-1.6 1.5-1.6c.9 0 1.5.7 1.5 1.5.1.9-.6 1.6-1.5 1.6zm0 8.2c-.9 0-1.5-.7-1.5-1.5s.7-1.5 1.5-1.5c.9 0 1.5.7 1.5 1.5.1.8-.6 1.5-1.5 1.5zm0 8.2c-.9 0-1.5-.7-1.5-1.5s.7-1.5 1.5-1.5c.9 0 1.5.7 1.5 1.5.1.8-.6 1.5-1.5 1.5z"/><path d="m168 89.6c-.9 0-1.5-.7-1.6-1.5s.7-1.5 1.5-1.6 1.5.7 1.6 1.5c0 .9-.7 1.6-1.5 1.6zm0 8.2c-.9 0-1.5-.7-1.6-1.5s.7-1.5 1.5-1.6 1.5.7 1.6 1.5c0 .9-.7 1.6-1.5 1.6zm0 8.3c-.9 0-1.5-.7-1.6-1.5s.7-1.5 1.5-1.6 1.5.7 1.6 1.5c0 .9-.7 1.5-1.5 1.6zm0 8.2c-.9 0-1.5-.7-1.6-1.5s.7-1.5 1.5-1.6 1.5.7 1.6 1.5c0 .9-.7 1.6-1.5 1.6zm0 8.2c-.9 0-1.5-.7-1.6-1.5s.7-1.5 1.5-1.6 1.5.7 1.6 1.5c0 .9-.7 1.6-1.5 1.6zm-8-32.9c-.9 0-1.5-.7-1.5-1.5s.7-1.5 1.5-1.5c.9 0 1.5.7 1.5 1.5 0 .8-.6 1.5-1.5 1.5zm0 8.2c-.9 0-1.5-.7-1.5-1.5s.7-1.5 1.5-1.5c.9 0 1.5.7 1.5 1.5 0 .8-.6 1.5-1.5 1.5zm0 8.2c-.9 0-1.5-.7-1.5-1.5s.6-1.5 1.5-1.5 1.5.7 1.5 1.5c0 .9-.6 1.5-1.5 1.5 0 .1 0 .1 0 0zm0 8.3c-.9 0-1.5-.7-1.5-1.5s.7-1.5 1.5-1.5c.9 0 1.5.7 1.5 1.5 0 .8-.6 1.5-1.5 1.5zm0 8.2c-.9 0-1.5-.7-1.5-1.5s.7-1.5 1.5-1.5c.9 0 1.5.7 1.5 1.5 0 .8-.6 1.5-1.5 1.5zm-8-32.9c-.9 0-1.5-.7-1.5-1.5s.7-1.5 1.5-1.5c.9 0 1.5.7 1.5 1.5.1.8-.6 1.5-1.5 1.5zm0 8.2c-.9 0-1.5-.7-1.5-1.5s.7-1.5 1.5-1.5c.9 0 1.5.7 1.5 1.5.1.8-.6 1.5-1.5 1.5zm0 8.2c-.9 0-1.5-.7-1.5-1.5s.7-1.5 1.5-1.5c.9 0 1.5.7 1.5 1.5.1.9-.6 1.5-1.5 1.5 0 .1 0 .1 0 0zm0 8.3c-.9 0-1.5-.7-1.5-1.5s.7-1.5 1.5-1.5c.9 0 1.5.7 1.5 1.5.1.8-.6 1.5-1.5 1.5zm0 8.2c-.9 0-1.5-.7-1.5-1.5s.7-1.5 1.5-1.5c.9 0 1.5.7 1.5 1.5.1.8-.6 1.5-1.5 1.5zm16 8.1c-.9 0-1.5-.7-1.6-1.5s.7-1.5 1.5-1.6 1.5.7 1.6 1.5c0 .9-.7 1.6-1.5 1.6zm0 8.2c-.9 0-1.5-.7-1.6-1.5s.7-1.5 1.5-1.6 1.5.7 1.6 1.5c0 1-.7 1.6-1.5 1.6 0 .1 0 .1 0 0zm0 8.3c-.9 0-1.5-.7-1.6-1.5s.7-1.5 1.5-1.6 1.5.7 1.6 1.5c0 .9-.7 1.6-1.5 1.6zm0 8.2c-.9 0-1.5-.7-1.6-1.5s.7-1.5 1.5-1.6 1.5.7 1.6 1.5c0 .9-.7 1.6-1.5 1.6zm0 8.2c-.9 0-1.5-.7-1.6-1.5s.7-1.5 1.5-1.6 1.5.7 1.6 1.5c0 .9-.7 1.6-1.5 1.6zm-8-32.9c-.9 0-1.5-.7-1.5-1.5s.7-1.5 1.5-1.5c.9 0 1.5.7 1.5 1.5 0 .8-.6 1.5-1.5 1.5zm0 8.2c-.9 0-1.5-.7-1.5-1.5s.7-1.5 1.5-1.5c.9 0 1.5.7 1.5 1.5 0 .9-.6 1.5-1.5 1.5 0 .1 0 .1 0 0zm0 8.3c-.9 0-1.5-.7-1.5-1.5s.6-1.6 1.5-1.6 1.5.7 1.5 1.5c0 .9-.6 1.6-1.5 1.6zm0 8.2c-.9 0-1.5-.7-1.5-1.5s.7-1.5 1.5-1.5c.9 0 1.5.7 1.5 1.5 0 .8-.6 1.5-1.5 1.5zm0 8.2c-.9 0-1.5-.7-1.5-1.5s.7-1.5 1.5-1.5c.9 0 1.5.7 1.5 1.5 0 .8-.6 1.5-1.5 1.5zm-8-32.9c-.9 0-1.5-.7-1.5-1.5s.7-1.5 1.5-1.5c.9 0 1.5.7 1.5 1.5.1.8-.6 1.5-1.5 1.5zm0 8.2c-.9 0-1.5-.7-1.5-1.5s.7-1.5 1.5-1.5c.9 0 1.5.7 1.5 1.5.1.9-.6 1.5-1.5 1.5 0 .1 0 .1 0 0zm0 8.3c-.9 0-1.5-.7-1.5-1.5s.7-1.6 1.5-1.6c.9 0 1.5.7 1.5 1.5.1.9-.6 1.6-1.5 1.6zm0 8.2c-.9 0-1.5-.7-1.5-1.5s.7-1.5 1.5-1.5c.9 0 1.5.7 1.5 1.5.1.8-.6 1.5-1.5 1.5zm0 8.2c-.9 0-1.5-.7-1.5-1.5s.7-1.5 1.5-1.5c.9 0 1.5.7 1.5 1.5.1.8-.6 1.5-1.5 1.5z"/><path d="m192 89.6c-.9 0-1.5-.7-1.6-1.5s.7-1.5 1.5-1.6 1.5.7 1.6 1.5c0 .9-.7 1.6-1.5 1.6zm0 8.2c-.9 0-1.5-.7-1.6-1.5s.7-1.5 1.5-1.6 1.5.7 1.6 1.5c0 .9-.7 1.6-1.5 1.6zm0 8.3c-.9 0-1.5-.7-1.6-1.5s.7-1.5 1.5-1.6 1.5.7 1.6 1.5c0 .9-.7 1.5-1.5 1.6zm0 8.2c-.9 0-1.5-.7-1.6-1.5s.7-1.5 1.5-1.6 1.5.7 1.6 1.5c0 .9-.7 1.6-1.5 1.6zm0 8.2c-.9 0-1.5-.7-1.6-1.5s.7-1.5 1.5-1.6 1.5.7 1.6 1.5c0 .9-.7 1.6-1.5 1.6zm-8-32.9c-.9 0-1.5-.7-1.5-1.5s.7-1.5 1.5-1.5c.9 0 1.5.7 1.5 1.5 0 .8-.6 1.5-1.5 1.5zm0 8.2c-.9 0-1.5-.7-1.5-1.5s.7-1.5 1.5-1.5c.9 0 1.5.7 1.5 1.5 0 .8-.6 1.5-1.5 1.5zm0 8.2c-.9 0-1.5-.7-1.5-1.5s.6-1.5 1.5-1.5 1.5.7 1.5 1.5c0 .9-.6 1.5-1.5 1.5 0 .1 0 .1 0 0zm0 8.3c-.9 0-1.5-.7-1.5-1.5s.7-1.5 1.5-1.5c.9 0 1.5.7 1.5 1.5 0 .8-.6 1.5-1.5 1.5zm0 8.2c-.9 0-1.5-.7-1.5-1.5s.7-1.5 1.5-1.5c.9 0 1.5.7 1.5 1.5 0 .8-.6 1.5-1.5 1.5zm-8-32.9c-.9 0-1.5-.7-1.5-1.5s.7-1.5 1.5-1.5c.9 0 1.5.7 1.5 1.5.1.8-.6 1.5-1.5 1.5zm0 8.2c-.9 0-1.5-.7-1.5-1.5s.7-1.5 1.5-1.5c.9 0 1.5.7 1.5 1.5.1.8-.6 1.5-1.5 1.5zm0 8.2c-.9 0-1.5-.7-1.5-1.5s.7-1.5 1.5-1.5c.9 0 1.5.7 1.5 1.5.1.9-.6 1.5-1.5 1.5 0 .1 0 .1 0 0zm0 8.3c-.9 0-1.5-.7-1.5-1.5s.7-1.5 1.5-1.5c.9 0 1.5.7 1.5 1.5.1.8-.6 1.5-1.5 1.5zm0 8.2c-.9 0-1.5-.7-1.5-1.5s.7-1.5 1.5-1.5c.9 0 1.5.7 1.5 1.5.1.8-.6 1.5-1.5 1.5zm16 8.1c-.9 0-1.5-.7-1.6-1.5s.7-1.5 1.5-1.6 1.5.7 1.6 1.5c0 .9-.7 1.6-1.5 1.6zm0 8.2c-.9 0-1.5-.7-1.6-1.5s.7-1.5 1.5-1.6 1.5.7 1.6 1.5c0 1-.7 1.6-1.5 1.6 0 .1 0 .1 0 0zm0 8.3c-.9 0-1.5-.7-1.6-1.5s.7-1.5 1.5-1.6 1.5.7 1.6 1.5c0 .9-.7 1.6-1.5 1.6zm0 8.2c-.9 0-1.5-.7-1.6-1.5s.7-1.5 1.5-1.6 1.5.7 1.6 1.5c0 .9-.7 1.6-1.5 1.6zm0 8.2c-.9 0-1.5-.7-1.6-1.5s.7-1.5 1.5-1.6 1.5.7 1.6 1.5c0 .9-.7 1.6-1.5 1.6zm-8-32.9c-.9 0-1.5-.7-1.5-1.5s.7-1.5 1.5-1.5c.9 0 1.5.7 1.5 1.5 0 .8-.6 1.5-1.5 1.5zm0 8.2c-.9 0-1.5-.7-1.5-1.5s.7-1.5 1.5-1.5c.9 0 1.5.7 1.5 1.5 0 .9-.6 1.5-1.5 1.5 0 .1 0 .1 0 0zm0 8.3c-.9 0-1.5-.7-1.5-1.5s.6-1.6 1.5-1.6 1.5.7 1.5 1.5c0 .9-.6 1.6-1.5 1.6zm0 8.2c-.9 0-1.5-.7-1.5-1.5s.7-1.5 1.5-1.5c.9 0 1.5.7 1.5 1.5 0 .8-.6 1.5-1.5 1.5zm0 8.2c-.9 0-1.5-.7-1.5-1.5s.7-1.5 1.5-1.5c.9 0 1.5.7 1.5 1.5 0 .8-.6 1.5-1.5 1.5zm-8-32.9c-.9 0-1.5-.7-1.5-1.5s.7-1.5 1.5-1.5c.9 0 1.5.7 1.5 1.5.1.8-.6 1.5-1.5 1.5zm0 8.2c-.9 0-1.5-.7-1.5-1.5s.7-1.5 1.5-1.5c.9 0 1.5.7 1.5 1.5.1.9-.6 1.5-1.5 1.5 0 .1 0 .1 0 0zm0 8.3c-.9 0-1.5-.7-1.5-1.5s.7-1.6 1.5-1.6c.9 0 1.5.7 1.5 1.5.1.9-.6 1.6-1.5 1.6zm0 8.2c-.9 0-1.5-.7-1.5-1.5s.7-1.5 1.5-1.5c.9 0 1.5.7 1.5 1.5.1.8-.6 1.5-1.5 1.5zm0 8.2c-.9 0-1.5-.7-1.5-1.5s.7-1.5 1.5-1.5c.9 0 1.5.7 1.5 1.5.1.8-.6 1.5-1.5 1.5z"/><path d="m24 172.6c-.9 0-1.5-.7-1.6-1.5s.7-1.5 1.5-1.6 1.5.7 1.6 1.5c0 .9-.7 1.6-1.5 1.6zm0 8.2c-.9 0-1.5-.7-1.6-1.5s.7-1.5 1.5-1.6 1.5.7 1.6 1.5c0 .9-.7 1.6-1.5 1.6zm0 8.3c-.9 0-1.5-.7-1.6-1.5s.7-1.5 1.5-1.6 1.5.7 1.6 1.5c0 .9-.7 1.5-1.5 1.6zm0 8.2c-.9 0-1.5-.7-1.6-1.5s.7-1.5 1.5-1.6 1.5.7 1.6 1.5c0 .9-.7 1.6-1.5 1.6zm0 8.2c-.9 0-1.5-.7-1.6-1.5s.7-1.5 1.5-1.6 1.5.7 1.6 1.5c0 .9-.7 1.6-1.5 1.6zm-8-32.9c-.9 0-1.5-.7-1.5-1.5s.7-1.5 1.5-1.5c.9 0 1.5.7 1.5 1.5 0 .8-.6 1.5-1.5 1.5zm0 8.2c-.9 0-1.5-.7-1.5-1.5s.7-1.5 1.5-1.5c.9 0 1.5.7 1.5 1.5 0 .8-.6 1.5-1.5 1.5zm0 8.2c-.9 0-1.5-.7-1.5-1.5s.6-1.5 1.5-1.5 1.5.7 1.5 1.5c0 .9-.6 1.5-1.5 1.5 0 .1 0 .1 0 0zm0 8.3c-.9 0-1.5-.7-1.5-1.5s.7-1.5 1.5-1.5c.9 0 1.5.7 1.5 1.5 0 .8-.6 1.5-1.5 1.5zm0 8.2c-.9 0-1.5-.7-1.5-1.5s.7-1.5 1.5-1.5c.9 0 1.5.7 1.5 1.5 0 .8-.6 1.5-1.5 1.5zm-8-32.9c-.9 0-1.5-.7-1.5-1.5s.7-1.5 1.5-1.5c.9 0 1.5.7 1.5 1.5.1.8-.6 1.5-1.5 1.5zm0 8.2c-.9 0-1.5-.7-1.5-1.5s.7-1.5 1.5-1.5c.9 0 1.5.7 1.5 1.5.1.8-.6 1.5-1.5 1.5zm0 8.2c-.9 0-1.5-.7-1.5-1.5s.7-1.5 1.5-1.5c.9 0 1.5.7 1.5 1.5.1.9-.6 1.5-1.5 1.5 0 .1 0 .1 0 0zm0 8.3c-.9 0-1.5-.7-1.5-1.5s.7-1.5 1.5-1.5c.9 0 1.5.7 1.5 1.5.1.8-.6 1.5-1.5 1.5zm0 8.2c-.9 0-1.5-.7-1.5-1.5s.7-1.5 1.5-1.5c.9 0 1.5.7 1.5 1.5.1.8-.6 1.5-1.5 1.5zm16 8.1c-.9 0-1.5-.7-1.6-1.5s.7-1.5 1.5-1.6 1.5.7 1.6 1.5c0 .9-.7 1.6-1.5 1.6zm0 8.2c-.9 0-1.5-.7-1.6-1.5s.7-1.5 1.5-1.6 1.5.7 1.6 1.5c0 1-.7 1.6-1.5 1.6 0 .1 0 .1 0 0zm0 8.3c-.9 0-1.5-.7-1.6-1.5s.7-1.5 1.5-1.6 1.5.7 1.6 1.5c0 .9-.7 1.6-1.5 1.6zm0 8.2c-.9 0-1.5-.7-1.6-1.5s.7-1.5 1.5-1.6 1.5.7 1.6 1.5c0 .9-.7 1.6-1.5 1.6zm0 8.2c-.9 0-1.5-.7-1.6-1.5s.7-1.5 1.5-1.6 1.5.7 1.6 1.5c0 .9-.7 1.6-1.5 1.6zm-8-32.9c-.9 0-1.5-.7-1.5-1.5s.7-1.5 1.5-1.5c.9 0 1.5.7 1.5 1.5 0 .8-.6 1.5-1.5 1.5zm0 8.2c-.9 0-1.5-.7-1.5-1.5s.7-1.5 1.5-1.5c.9 0 1.5.7 1.5 1.5 0 .9-.6 1.5-1.5 1.5 0 .1 0 .1 0 0zm0 8.3c-.9 0-1.5-.7-1.5-1.5s.6-1.6 1.5-1.6 1.5.7 1.5 1.5c0 .9-.6 1.6-1.5 1.6zm0 8.2c-.9 0-1.5-.7-1.5-1.5s.7-1.5 1.5-1.5c.9 0 1.5.7 1.5 1.5 0 .8-.6 1.5-1.5 1.5zm0 8.2c-.9 0-1.5-.7-1.5-1.5s.7-1.5 1.5-1.5c.9 0 1.5.7 1.5 1.5 0 .8-.6 1.5-1.5 1.5zm-8-32.9c-.9 0-1.5-.7-1.5-1.5s.7-1.5 1.5-1.5c.9 0 1.5.7 1.5 1.5.1.8-.6 1.5-1.5 1.5zm0 8.2c-.9 0-1.5-.7-1.5-1.5s.7-1.5 1.5-1.5c.9 0 1.5.7 1.5 1.5.1.9-.6 1.5-1.5 1.5 0 .1 0 .1 0 0zm0 8.3c-.9 0-1.5-.7-1.5-1.5s.7-1.6 1.5-1.6c.9 0 1.5.7 1.5 1.5.1.9-.6 1.6-1.5 1.6zm0 8.2c-.9 0-1.5-.7-1.5-1.5s.7-1.5 1.5-1.5c.9 0 1.5.7 1.5 1.5.1.8-.6 1.5-1.5 1.5zm0 8.2c-.9 0-1.5-.7-1.5-1.5s.7-1.5 1.5-1.5c.9 0 1.5.7 1.5 1.5.1.8-.6 1.5-1.5 1.5z"/><path d="m48 172.6c-.9 0-1.5-.7-1.6-1.5s.7-1.5 1.5-1.6 1.5.7 1.6 1.5c0 .9-.7 1.6-1.5 1.6zm0 8.2c-.9 0-1.5-.7-1.6-1.5s.7-1.5 1.5-1.6 1.5.7 1.6 1.5c0 .9-.7 1.6-1.5 1.6zm0 8.3c-.9 0-1.5-.7-1.6-1.5s.7-1.5 1.5-1.6 1.5.7 1.6 1.5c0 .9-.7 1.5-1.5 1.6zm0 8.2c-.9 0-1.5-.7-1.6-1.5s.7-1.5 1.5-1.6 1.5.7 1.6 1.5c0 .9-.7 1.6-1.5 1.6zm0 8.2c-.9 0-1.5-.7-1.6-1.5s.7-1.5 1.5-1.6 1.5.7 1.6 1.5c0 .9-.7 1.6-1.5 1.6zm-8-32.9c-.9 0-1.5-.7-1.5-1.5s.7-1.5 1.5-1.5c.9 0 1.5.7 1.5 1.5 0 .8-.6 1.5-1.5 1.5zm0 8.2c-.9 0-1.5-.7-1.5-1.5s.7-1.5 1.5-1.5c.9 0 1.5.7 1.5 1.5 0 .8-.6 1.5-1.5 1.5zm0 8.2c-.9 0-1.5-.7-1.5-1.5s.6-1.5 1.5-1.5 1.5.7 1.5 1.5c0 .9-.6 1.5-1.5 1.5 0 .1 0 .1 0 0zm0 8.3c-.9 0-1.5-.7-1.5-1.5s.7-1.5 1.5-1.5c.9 0 1.5.7 1.5 1.5 0 .8-.6 1.5-1.5 1.5zm0 8.2c-.9 0-1.5-.7-1.5-1.5s.7-1.5 1.5-1.5c.9 0 1.5.7 1.5 1.5 0 .8-.6 1.5-1.5 1.5zm-8-32.9c-.9 0-1.5-.7-1.5-1.5s.7-1.5 1.5-1.5c.9 0 1.5.7 1.5 1.5.1.8-.6 1.5-1.5 1.5zm0 8.2c-.9 0-1.5-.7-1.5-1.5s.7-1.5 1.5-1.5c.9 0 1.5.7 1.5 1.5.1.8-.6 1.5-1.5 1.5zm0 8.2c-.9 0-1.5-.7-1.5-1.5s.7-1.5 1.5-1.5c.9 0 1.5.7 1.5 1.5.1.9-.6 1.5-1.5 1.5 0 .1 0 .1 0 0zm0 8.3c-.9 0-1.5-.7-1.5-1.5s.7-1.5 1.5-1.5c.9 0 1.5.7 1.5 1.5.1.8-.6 1.5-1.5 1.5zm0 8.2c-.9 0-1.5-.7-1.5-1.5s.7-1.5 1.5-1.5c.9 0 1.5.7 1.5 1.5.1.8-.6 1.5-1.5 1.5zm16 8.1c-.9 0-1.5-.7-1.6-1.5s.7-1.5 1.5-1.6 1.5.7 1.6 1.5c0 .9-.7 1.6-1.5 1.6zm0 8.2c-.9 0-1.5-.7-1.6-1.5s.7-1.5 1.5-1.6 1.5.7 1.6 1.5c0 1-.7 1.6-1.5 1.6 0 .1 0 .1 0 0zm0 8.3c-.9 0-1.5-.7-1.6-1.5s.7-1.5 1.5-1.6 1.5.7 1.6 1.5c0 .9-.7 1.6-1.5 1.6zm0 8.2c-.9 0-1.5-.7-1.6-1.5s.7-1.5 1.5-1.6 1.5.7 1.6 1.5c0 .9-.7 1.6-1.5 1.6zm0 8.2c-.9 0-1.5-.7-1.6-1.5s.7-1.5 1.5-1.6 1.5.7 1.6 1.5c0 .9-.7 1.6-1.5 1.6zm-8-32.9c-.9 0-1.5-.7-1.5-1.5s.7-1.5 1.5-1.5c.9 0 1.5.7 1.5 1.5 0 .8-.6 1.5-1.5 1.5zm0 8.2c-.9 0-1.5-.7-1.5-1.5s.7-1.5 1.5-1.5c.9 0 1.5.7 1.5 1.5 0 .9-.6 1.5-1.5 1.5 0 .1 0 .1 0 0zm0 8.3c-.9 0-1.5-.7-1.5-1.5s.6-1.6 1.5-1.6 1.5.7 1.5 1.5c0 .9-.6 1.6-1.5 1.6zm0 8.2c-.9 0-1.5-.7-1.5-1.5s.7-1.5 1.5-1.5c.9 0 1.5.7 1.5 1.5 0 .8-.6 1.5-1.5 1.5zm0 8.2c-.9 0-1.5-.7-1.5-1.5s.7-1.5 1.5-1.5c.9 0 1.5.7 1.5 1.5 0 .8-.6 1.5-1.5 1.5zm-8-32.9c-.9 0-1.5-.7-1.5-1.5s.7-1.5 1.5-1.5c.9 0 1.5.7 1.5 1.5.1.8-.6 1.5-1.5 1.5zm0 8.2c-.9 0-1.5-.7-1.5-1.5s.7-1.5 1.5-1.5c.9 0 1.5.7 1.5 1.5.1.9-.6 1.5-1.5 1.5 0 .1 0 .1 0 0zm0 8.3c-.9 0-1.5-.7-1.5-1.5s.7-1.6 1.5-1.6c.9 0 1.5.7 1.5 1.5.1.9-.6 1.6-1.5 1.6zm0 8.2c-.9 0-1.5-.7-1.5-1.5s.7-1.5 1.5-1.5c.9 0 1.5.7 1.5 1.5.1.8-.6 1.5-1.5 1.5zm0 8.2c-.9 0-1.5-.7-1.5-1.5s.7-1.5 1.5-1.5c.9 0 1.5.7 1.5 1.5.1.8-.6 1.5-1.5 1.5z"/><path d="m72 172.6c-.9 0-1.5-.7-1.6-1.5s.7-1.5 1.5-1.6 1.5.7 1.6 1.5c0 .9-.7 1.6-1.5 1.6zm0 8.2c-.9 0-1.5-.7-1.6-1.5s.7-1.5 1.5-1.6 1.5.7 1.6 1.5c0 .9-.7 1.6-1.5 1.6zm0 8.3c-.9 0-1.5-.7-1.6-1.5s.7-1.5 1.5-1.6 1.5.7 1.6 1.5c0 .9-.7 1.5-1.5 1.6zm0 8.2c-.9 0-1.5-.7-1.6-1.5s.7-1.5 1.5-1.6 1.5.7 1.6 1.5c0 .9-.7 1.6-1.5 1.6zm0 8.2c-.9 0-1.5-.7-1.6-1.5s.7-1.5 1.5-1.6 1.5.7 1.6 1.5c0 .9-.7 1.6-1.5 1.6zm-8-32.9c-.9 0-1.5-.7-1.5-1.5s.7-1.5 1.5-1.5c.9 0 1.5.7 1.5 1.5 0 .8-.6 1.5-1.5 1.5zm0 8.2c-.9 0-1.5-.7-1.5-1.5s.7-1.5 1.5-1.5c.9 0 1.5.7 1.5 1.5 0 .8-.6 1.5-1.5 1.5zm0 8.2c-.9 0-1.5-.7-1.5-1.5s.6-1.5 1.5-1.5 1.5.7 1.5 1.5c0 .9-.6 1.5-1.5 1.5 0 .1 0 .1 0 0zm0 8.3c-.9 0-1.5-.7-1.5-1.5s.7-1.5 1.5-1.5c.9 0 1.5.7 1.5 1.5 0 .8-.6 1.5-1.5 1.5zm0 8.2c-.9 0-1.5-.7-1.5-1.5s.7-1.5 1.5-1.5c.9 0 1.5.7 1.5 1.5 0 .8-.6 1.5-1.5 1.5zm-8-32.9c-.9 0-1.5-.7-1.5-1.5s.7-1.5 1.5-1.5c.9 0 1.5.7 1.5 1.5.1.8-.6 1.5-1.5 1.5zm0 8.2c-.9 0-1.5-.7-1.5-1.5s.7-1.5 1.5-1.5c.9 0 1.5.7 1.5 1.5.1.8-.6 1.5-1.5 1.5zm0 8.2c-.9 0-1.5-.7-1.5-1.5s.7-1.5 1.5-1.5c.9 0 1.5.7 1.5 1.5.1.9-.6 1.5-1.5 1.5 0 .1 0 .1 0 0zm0 8.3c-.9 0-1.5-.7-1.5-1.5s.7-1.5 1.5-1.5c.9 0 1.5.7 1.5 1.5.1.8-.6 1.5-1.5 1.5zm0 8.2c-.9 0-1.5-.7-1.5-1.5s.7-1.5 1.5-1.5c.9 0 1.5.7 1.5 1.5.1.8-.6 1.5-1.5 1.5zm16 8.1c-.9 0-1.5-.7-1.6-1.5s.7-1.5 1.5-1.6 1.5.7 1.6 1.5c0 .9-.7 1.6-1.5 1.6zm0 8.2c-.9 0-1.5-.7-1.6-1.5s.7-1.5 1.5-1.6 1.5.7 1.6 1.5c0 1-.7 1.6-1.5 1.6 0 .1 0 .1 0 0zm0 8.3c-.9 0-1.5-.7-1.6-1.5s.7-1.5 1.5-1.6 1.5.7 1.6 1.5c0 .9-.7 1.6-1.5 1.6zm0 8.2c-.9 0-1.5-.7-1.6-1.5s.7-1.5 1.5-1.6 1.5.7 1.6 1.5c0 .9-.7 1.6-1.5 1.6zm0 8.2c-.9 0-1.5-.7-1.6-1.5s.7-1.5 1.5-1.6 1.5.7 1.6 1.5c0 .9-.7 1.6-1.5 1.6zm-8-32.9c-.9 0-1.5-.7-1.5-1.5s.7-1.5 1.5-1.5c.9 0 1.5.7 1.5 1.5 0 .8-.6 1.5-1.5 1.5zm0 8.2c-.9 0-1.5-.7-1.5-1.5s.7-1.5 1.5-1.5c.9 0 1.5.7 1.5 1.5 0 .9-.6 1.5-1.5 1.5 0 .1 0 .1 0 0zm0 8.3c-.9 0-1.5-.7-1.5-1.5s.6-1.6 1.5-1.6 1.5.7 1.5 1.5c0 .9-.6 1.6-1.5 1.6zm0 8.2c-.9 0-1.5-.7-1.5-1.5s.7-1.5 1.5-1.5c.9 0 1.5.7 1.5 1.5 0 .8-.6 1.5-1.5 1.5zm0 8.2c-.9 0-1.5-.7-1.5-1.5s.7-1.5 1.5-1.5c.9 0 1.5.7 1.5 1.5 0 .8-.6 1.5-1.5 1.5zm-8-32.9c-.9 0-1.5-.7-1.5-1.5s.7-1.5 1.5-1.5c.9 0 1.5.7 1.5 1.5.1.8-.6 1.5-1.5 1.5zm0 8.2c-.9 0-1.5-.7-1.5-1.5s.7-1.5 1.5-1.5c.9 0 1.5.7 1.5 1.5.1.9-.6 1.5-1.5 1.5 0 .1 0 .1 0 0zm0 8.3c-.9 0-1.5-.7-1.5-1.5s.7-1.6 1.5-1.6c.9 0 1.5.7 1.5 1.5.1.9-.6 1.6-1.5 1.6zm0 8.2c-.9 0-1.5-.7-1.5-1.5s.7-1.5 1.5-1.5c.9 0 1.5.7 1.5 1.5.1.8-.6 1.5-1.5 1.5zm0 8.2c-.9 0-1.5-.7-1.5-1.5s.7-1.5 1.5-1.5c.9 0 1.5.7 1.5 1.5.1.8-.6 1.5-1.5 1.5z"/><path d="m96 172.6c-.9 0-1.5-.7-1.6-1.5s.7-1.5 1.5-1.6 1.5.7 1.6 1.5c0 .9-.7 1.6-1.5 1.6zm0 8.2c-.9 0-1.5-.7-1.6-1.5s.7-1.5 1.5-1.6 1.5.7 1.6 1.5c0 .9-.7 1.6-1.5 1.6zm0 8.3c-.9 0-1.5-.7-1.6-1.5s.7-1.5 1.5-1.6 1.5.7 1.6 1.5c0 .9-.7 1.5-1.5 1.6zm0 8.2c-.9 0-1.5-.7-1.6-1.5s.7-1.5 1.5-1.6 1.5.7 1.6 1.5c0 .9-.7 1.6-1.5 1.6zm0 8.2c-.9 0-1.5-.7-1.6-1.5s.7-1.5 1.5-1.6 1.5.7 1.6 1.5c0 .9-.7 1.6-1.5 1.6zm-8-32.9c-.9 0-1.5-.7-1.5-1.5s.7-1.5 1.5-1.5c.9 0 1.5.7 1.5 1.5 0 .8-.6 1.5-1.5 1.5zm0 8.2c-.9 0-1.5-.7-1.5-1.5s.7-1.5 1.5-1.5c.9 0 1.5.7 1.5 1.5 0 .8-.6 1.5-1.5 1.5zm0 8.2c-.9 0-1.5-.7-1.5-1.5s.6-1.5 1.5-1.5 1.5.7 1.5 1.5c0 .9-.6 1.5-1.5 1.5 0 .1 0 .1 0 0zm0 8.3c-.9 0-1.5-.7-1.5-1.5s.7-1.5 1.5-1.5c.9 0 1.5.7 1.5 1.5 0 .8-.6 1.5-1.5 1.5zm0 8.2c-.9 0-1.5-.7-1.5-1.5s.7-1.5 1.5-1.5c.9 0 1.5.7 1.5 1.5 0 .8-.6 1.5-1.5 1.5zm-8-32.9c-.9 0-1.5-.7-1.5-1.5s.7-1.5 1.5-1.5c.9 0 1.5.7 1.5 1.5.1.8-.6 1.5-1.5 1.5zm0 8.2c-.9 0-1.5-.7-1.5-1.5s.7-1.5 1.5-1.5c.9 0 1.5.7 1.5 1.5.1.8-.6 1.5-1.5 1.5zm0 8.2c-.9 0-1.5-.7-1.5-1.5s.7-1.5 1.5-1.5c.9 0 1.5.7 1.5 1.5.1.9-.6 1.5-1.5 1.5 0 .1 0 .1 0 0zm0 8.3c-.9 0-1.5-.7-1.5-1.5s.7-1.5 1.5-1.5c.9 0 1.5.7 1.5 1.5.1.8-.6 1.5-1.5 1.5zm0 8.2c-.9 0-1.5-.7-1.5-1.5s.7-1.5 1.5-1.5c.9 0 1.5.7 1.5 1.5.1.8-.6 1.5-1.5 1.5zm16 8.1c-.9 0-1.5-.7-1.6-1.5s.7-1.5 1.5-1.6 1.5.7 1.6 1.5c0 .9-.7 1.6-1.5 1.6zm0 8.2c-.9 0-1.5-.7-1.6-1.5s.7-1.5 1.5-1.6 1.5.7 1.6 1.5c0 1-.7 1.6-1.5 1.6 0 .1 0 .1 0 0zm0 8.3c-.9 0-1.5-.7-1.6-1.5s.7-1.5 1.5-1.6 1.5.7 1.6 1.5c0 .9-.7 1.6-1.5 1.6zm0 8.2c-.9 0-1.5-.7-1.6-1.5s.7-1.5 1.5-1.6 1.5.7 1.6 1.5c0 .9-.7 1.6-1.5 1.6zm0 8.2c-.9 0-1.5-.7-1.6-1.5s.7-1.5 1.5-1.6 1.5.7 1.6 1.5c0 .9-.7 1.6-1.5 1.6zm-8-32.9c-.9 0-1.5-.7-1.5-1.5s.7-1.5 1.5-1.5c.9 0 1.5.7 1.5 1.5 0 .8-.6 1.5-1.5 1.5zm0 8.2c-.9 0-1.5-.7-1.5-1.5s.7-1.5 1.5-1.5c.9 0 1.5.7 1.5 1.5 0 .9-.6 1.5-1.5 1.5 0 .1 0 .1 0 0zm0 8.3c-.9 0-1.5-.7-1.5-1.5s.6-1.6 1.5-1.6 1.5.7 1.5 1.5c0 .9-.6 1.6-1.5 1.6zm0 8.2c-.9 0-1.5-.7-1.5-1.5s.7-1.5 1.5-1.5c.9 0 1.5.7 1.5 1.5 0 .8-.6 1.5-1.5 1.5zm0 8.2c-.9 0-1.5-.7-1.5-1.5s.7-1.5 1.5-1.5c.9 0 1.5.7 1.5 1.5 0 .8-.6 1.5-1.5 1.5zm-8-32.9c-.9 0-1.5-.7-1.5-1.5s.7-1.5 1.5-1.5c.9 0 1.5.7 1.5 1.5.1.8-.6 1.5-1.5 1.5zm0 8.2c-.9 0-1.5-.7-1.5-1.5s.7-1.5 1.5-1.5c.9 0 1.5.7 1.5 1.5.1.9-.6 1.5-1.5 1.5 0 .1 0 .1 0 0zm0 8.3c-.9 0-1.5-.7-1.5-1.5s.7-1.6 1.5-1.6c.9 0 1.5.7 1.5 1.5.1.9-.6 1.6-1.5 1.6zm0 8.2c-.9 0-1.5-.7-1.5-1.5s.7-1.5 1.5-1.5c.9 0 1.5.7 1.5 1.5.1.8-.6 1.5-1.5 1.5zm0 8.2c-.9 0-1.5-.7-1.5-1.5s.7-1.5 1.5-1.5c.9 0 1.5.7 1.5 1.5.1.8-.6 1.5-1.5 1.5z"/><path d="m120 172.6c-.9 0-1.5-.7-1.6-1.5s.7-1.5 1.5-1.6 1.5.7 1.6 1.5c0 .9-.7 1.6-1.5 1.6zm0 8.2c-.9 0-1.5-.7-1.6-1.5s.7-1.5 1.5-1.6 1.5.7 1.6 1.5c0 .9-.7 1.6-1.5 1.6zm0 8.3c-.9 0-1.5-.7-1.6-1.5s.7-1.5 1.5-1.6 1.5.7 1.6 1.5c0 .9-.7 1.5-1.5 1.6zm0 8.2c-.9 0-1.5-.7-1.6-1.5s.7-1.5 1.5-1.6 1.5.7 1.6 1.5c0 .9-.7 1.6-1.5 1.6zm0 8.2c-.9 0-1.5-.7-1.6-1.5s.7-1.5 1.5-1.6 1.5.7 1.6 1.5c0 .9-.7 1.6-1.5 1.6zm-8-32.9c-.9 0-1.5-.7-1.5-1.5s.7-1.5 1.5-1.5c.9 0 1.5.7 1.5 1.5 0 .8-.6 1.5-1.5 1.5zm0 8.2c-.9 0-1.5-.7-1.5-1.5s.7-1.5 1.5-1.5c.9 0 1.5.7 1.5 1.5 0 .8-.6 1.5-1.5 1.5zm0 8.2c-.9 0-1.5-.7-1.5-1.5s.6-1.5 1.5-1.5 1.5.7 1.5 1.5c0 .9-.6 1.5-1.5 1.5 0 .1 0 .1 0 0zm0 8.3c-.9 0-1.5-.7-1.5-1.5s.7-1.5 1.5-1.5c.9 0 1.5.7 1.5 1.5 0 .8-.6 1.5-1.5 1.5zm0 8.2c-.9 0-1.5-.7-1.5-1.5s.7-1.5 1.5-1.5c.9 0 1.5.7 1.5 1.5 0 .8-.6 1.5-1.5 1.5zm-8-32.9c-.9 0-1.5-.7-1.5-1.5s.7-1.5 1.5-1.5c.9 0 1.5.7 1.5 1.5.1.8-.6 1.5-1.5 1.5zm0 8.2c-.9 0-1.5-.7-1.5-1.5s.7-1.5 1.5-1.5c.9 0 1.5.7 1.5 1.5.1.8-.6 1.5-1.5 1.5zm0 8.2c-.9 0-1.5-.7-1.5-1.5s.7-1.5 1.5-1.5c.9 0 1.5.7 1.5 1.5.1.9-.6 1.5-1.5 1.5 0 .1 0 .1 0 0zm0 8.3c-.9 0-1.5-.7-1.5-1.5s.7-1.5 1.5-1.5c.9 0 1.5.7 1.5 1.5.1.8-.6 1.5-1.5 1.5zm0 8.2c-.9 0-1.5-.7-1.5-1.5s.7-1.5 1.5-1.5c.9 0 1.5.7 1.5 1.5.1.8-.6 1.5-1.5 1.5zm16 8.1c-.9 0-1.5-.7-1.6-1.5s.7-1.5 1.5-1.6 1.5.7 1.6 1.5c0 .9-.7 1.6-1.5 1.6zm0 8.2c-.9 0-1.5-.7-1.6-1.5s.7-1.5 1.5-1.6 1.5.7 1.6 1.5c0 1-.7 1.6-1.5 1.6 0 .1 0 .1 0 0zm0 8.3c-.9 0-1.5-.7-1.6-1.5s.7-1.5 1.5-1.6 1.5.7 1.6 1.5c0 .9-.7 1.6-1.5 1.6zm0 8.2c-.9 0-1.5-.7-1.6-1.5s.7-1.5 1.5-1.6 1.5.7 1.6 1.5c0 .9-.7 1.6-1.5 1.6zm0 8.2c-.9 0-1.5-.7-1.6-1.5s.7-1.5 1.5-1.6 1.5.7 1.6 1.5c0 .9-.7 1.6-1.5 1.6zm-8-32.9c-.9 0-1.5-.7-1.5-1.5s.7-1.5 1.5-1.5c.9 0 1.5.7 1.5 1.5 0 .8-.6 1.5-1.5 1.5zm0 8.2c-.9 0-1.5-.7-1.5-1.5s.7-1.5 1.5-1.5c.9 0 1.5.7 1.5 1.5 0 .9-.6 1.5-1.5 1.5 0 .1 0 .1 0 0zm0 8.3c-.9 0-1.5-.7-1.5-1.5s.6-1.6 1.5-1.6 1.5.7 1.5 1.5c0 .9-.6 1.6-1.5 1.6zm0 8.2c-.9 0-1.5-.7-1.5-1.5s.7-1.5 1.5-1.5c.9 0 1.5.7 1.5 1.5 0 .8-.6 1.5-1.5 1.5zm0 8.2c-.9 0-1.5-.7-1.5-1.5s.7-1.5 1.5-1.5c.9 0 1.5.7 1.5 1.5 0 .8-.6 1.5-1.5 1.5zm-8-32.9c-.9 0-1.5-.7-1.5-1.5s.7-1.5 1.5-1.5c.9 0 1.5.7 1.5 1.5.1.8-.6 1.5-1.5 1.5zm0 8.2c-.9 0-1.5-.7-1.5-1.5s.7-1.5 1.5-1.5c.9 0 1.5.7 1.5 1.5.1.9-.6 1.5-1.5 1.5 0 .1 0 .1 0 0zm0 8.3c-.9 0-1.5-.7-1.5-1.5s.7-1.6 1.5-1.6c.9 0 1.5.7 1.5 1.5.1.9-.6 1.6-1.5 1.6zm0 8.2c-.9 0-1.5-.7-1.5-1.5s.7-1.5 1.5-1.5c.9 0 1.5.7 1.5 1.5.1.8-.6 1.5-1.5 1.5zm0 8.2c-.9 0-1.5-.7-1.5-1.5s.7-1.5 1.5-1.5c.9 0 1.5.7 1.5 1.5.1.8-.6 1.5-1.5 1.5z"/><path d="m144 172.6c-.9 0-1.5-.7-1.6-1.5s.7-1.5 1.5-1.6 1.5.7 1.6 1.5c0 .9-.7 1.6-1.5 1.6zm0 8.2c-.9 0-1.5-.7-1.6-1.5s.7-1.5 1.5-1.6 1.5.7 1.6 1.5c0 .9-.7 1.6-1.5 1.6zm0 8.3c-.9 0-1.5-.7-1.6-1.5s.7-1.5 1.5-1.6 1.5.7 1.6 1.5c0 .9-.7 1.5-1.5 1.6zm0 8.2c-.9 0-1.5-.7-1.6-1.5s.7-1.5 1.5-1.6 1.5.7 1.6 1.5c0 .9-.7 1.6-1.5 1.6zm0 8.2c-.9 0-1.5-.7-1.6-1.5s.7-1.5 1.5-1.6 1.5.7 1.6 1.5c0 .9-.7 1.6-1.5 1.6zm-8-32.9c-.9 0-1.5-.7-1.5-1.5s.7-1.5 1.5-1.5c.9 0 1.5.7 1.5 1.5 0 .8-.6 1.5-1.5 1.5zm0 8.2c-.9 0-1.5-.7-1.5-1.5s.7-1.5 1.5-1.5c.9 0 1.5.7 1.5 1.5 0 .8-.6 1.5-1.5 1.5zm0 8.2c-.9 0-1.5-.7-1.5-1.5s.6-1.5 1.5-1.5 1.5.7 1.5 1.5c0 .9-.6 1.5-1.5 1.5 0 .1 0 .1 0 0zm0 8.3c-.9 0-1.5-.7-1.5-1.5s.7-1.5 1.5-1.5c.9 0 1.5.7 1.5 1.5 0 .8-.6 1.5-1.5 1.5zm0 8.2c-.9 0-1.5-.7-1.5-1.5s.7-1.5 1.5-1.5c.9 0 1.5.7 1.5 1.5 0 .8-.6 1.5-1.5 1.5zm-8-32.9c-.9 0-1.5-.7-1.5-1.5s.7-1.5 1.5-1.5c.9 0 1.5.7 1.5 1.5.1.8-.6 1.5-1.5 1.5zm0 8.2c-.9 0-1.5-.7-1.5-1.5s.7-1.5 1.5-1.5c.9 0 1.5.7 1.5 1.5.1.8-.6 1.5-1.5 1.5zm0 8.2c-.9 0-1.5-.7-1.5-1.5s.7-1.5 1.5-1.5c.9 0 1.5.7 1.5 1.5.1.9-.6 1.5-1.5 1.5 0 .1 0 .1 0 0zm0 8.3c-.9 0-1.5-.7-1.5-1.5s.7-1.5 1.5-1.5c.9 0 1.5.7 1.5 1.5.1.8-.6 1.5-1.5 1.5zm0 8.2c-.9 0-1.5-.7-1.5-1.5s.7-1.5 1.5-1.5c.9 0 1.5.7 1.5 1.5.1.8-.6 1.5-1.5 1.5zm16 8.1c-.9 0-1.5-.7-1.6-1.5s.7-1.5 1.5-1.6 1.5.7 1.6 1.5c0 .9-.7 1.6-1.5 1.6zm0 8.2c-.9 0-1.5-.7-1.6-1.5s.7-1.5 1.5-1.6 1.5.7 1.6 1.5c0 1-.7 1.6-1.5 1.6 0 .1 0 .1 0 0zm0 8.3c-.9 0-1.5-.7-1.6-1.5s.7-1.5 1.5-1.6 1.5.7 1.6 1.5c0 .9-.7 1.6-1.5 1.6zm0 8.2c-.9 0-1.5-.7-1.6-1.5s.7-1.5 1.5-1.6 1.5.7 1.6 1.5c0 .9-.7 1.6-1.5 1.6zm0 8.2c-.9 0-1.5-.7-1.6-1.5s.7-1.5 1.5-1.6 1.5.7 1.6 1.5c0 .9-.7 1.6-1.5 1.6zm-8-32.9c-.9 0-1.5-.7-1.5-1.5s.7-1.5 1.5-1.5c.9 0 1.5.7 1.5 1.5 0 .8-.6 1.5-1.5 1.5zm0 8.2c-.9 0-1.5-.7-1.5-1.5s.7-1.5 1.5-1.5c.9 0 1.5.7 1.5 1.5 0 .9-.6 1.5-1.5 1.5 0 .1 0 .1 0 0zm0 8.3c-.9 0-1.5-.7-1.5-1.5s.6-1.6 1.5-1.6 1.5.7 1.5 1.5c0 .9-.6 1.6-1.5 1.6zm0 8.2c-.9 0-1.5-.7-1.5-1.5s.7-1.5 1.5-1.5c.9 0 1.5.7 1.5 1.5 0 .8-.6 1.5-1.5 1.5zm0 8.2c-.9 0-1.5-.7-1.5-1.5s.7-1.5 1.5-1.5c.9 0 1.5.7 1.5 1.5 0 .8-.6 1.5-1.5 1.5zm-8-32.9c-.9 0-1.5-.7-1.5-1.5s.7-1.5 1.5-1.5c.9 0 1.5.7 1.5 1.5.1.8-.6 1.5-1.5 1.5zm0 8.2c-.9 0-1.5-.7-1.5-1.5s.7-1.5 1.5-1.5c.9 0 1.5.7 1.5 1.5.1.9-.6 1.5-1.5 1.5 0 .1 0 .1 0 0zm0 8.3c-.9 0-1.5-.7-1.5-1.5s.7-1.6 1.5-1.6c.9 0 1.5.7 1.5 1.5.1.9-.6 1.6-1.5 1.6zm0 8.2c-.9 0-1.5-.7-1.5-1.5s.7-1.5 1.5-1.5c.9 0 1.5.7 1.5 1.5.1.8-.6 1.5-1.5 1.5zm0 8.2c-.9 0-1.5-.7-1.5-1.5s.7-1.5 1.5-1.5c.9 0 1.5.7 1.5 1.5.1.8-.6 1.5-1.5 1.5z"/><path d="m168 172.6c-.9 0-1.5-.7-1.6-1.5s.7-1.5 1.5-1.6 1.5.7 1.6 1.5c0 .9-.7 1.6-1.5 1.6zm0 8.2c-.9 0-1.5-.7-1.6-1.5s.7-1.5 1.5-1.6 1.5.7 1.6 1.5c0 .9-.7 1.6-1.5 1.6zm0 8.3c-.9 0-1.5-.7-1.6-1.5s.7-1.5 1.5-1.6 1.5.7 1.6 1.5c0 .9-.7 1.5-1.5 1.6zm0 8.2c-.9 0-1.5-.7-1.6-1.5s.7-1.5 1.5-1.6 1.5.7 1.6 1.5c0 .9-.7 1.6-1.5 1.6zm0 8.2c-.9 0-1.5-.7-1.6-1.5s.7-1.5 1.5-1.6 1.5.7 1.6 1.5c0 .9-.7 1.6-1.5 1.6zm-8-32.9c-.9 0-1.5-.7-1.5-1.5s.7-1.5 1.5-1.5c.9 0 1.5.7 1.5 1.5 0 .8-.6 1.5-1.5 1.5zm0 8.2c-.9 0-1.5-.7-1.5-1.5s.7-1.5 1.5-1.5c.9 0 1.5.7 1.5 1.5 0 .8-.6 1.5-1.5 1.5zm0 8.2c-.9 0-1.5-.7-1.5-1.5s.6-1.5 1.5-1.5 1.5.7 1.5 1.5c0 .9-.6 1.5-1.5 1.5 0 .1 0 .1 0 0zm0 8.3c-.9 0-1.5-.7-1.5-1.5s.7-1.5 1.5-1.5c.9 0 1.5.7 1.5 1.5 0 .8-.6 1.5-1.5 1.5zm0 8.2c-.9 0-1.5-.7-1.5-1.5s.7-1.5 1.5-1.5c.9 0 1.5.7 1.5 1.5 0 .8-.6 1.5-1.5 1.5zm-8-32.9c-.9 0-1.5-.7-1.5-1.5s.7-1.5 1.5-1.5c.9 0 1.5.7 1.5 1.5.1.8-.6 1.5-1.5 1.5zm0 8.2c-.9 0-1.5-.7-1.5-1.5s.7-1.5 1.5-1.5c.9 0 1.5.7 1.5 1.5.1.8-.6 1.5-1.5 1.5zm0 8.2c-.9 0-1.5-.7-1.5-1.5s.7-1.5 1.5-1.5c.9 0 1.5.7 1.5 1.5.1.9-.6 1.5-1.5 1.5 0 .1 0 .1 0 0zm0 8.3c-.9 0-1.5-.7-1.5-1.5s.7-1.5 1.5-1.5c.9 0 1.5.7 1.5 1.5.1.8-.6 1.5-1.5 1.5zm0 8.2c-.9 0-1.5-.7-1.5-1.5s.7-1.5 1.5-1.5c.9 0 1.5.7 1.5 1.5.1.8-.6 1.5-1.5 1.5zm16 8.1c-.9 0-1.5-.7-1.6-1.5s.7-1.5 1.5-1.6 1.5.7 1.6 1.5c0 .9-.7 1.6-1.5 1.6zm0 8.2c-.9 0-1.5-.7-1.6-1.5s.7-1.5 1.5-1.6 1.5.7 1.6 1.5c0 1-.7 1.6-1.5 1.6 0 .1 0 .1 0 0zm0 8.3c-.9 0-1.5-.7-1.6-1.5s.7-1.5 1.5-1.6 1.5.7 1.6 1.5c0 .9-.7 1.6-1.5 1.6zm0 8.2c-.9 0-1.5-.7-1.6-1.5s.7-1.5 1.5-1.6 1.5.7 1.6 1.5c0 .9-.7 1.6-1.5 1.6zm0 8.2c-.9 0-1.5-.7-1.6-1.5s.7-1.5 1.5-1.6 1.5.7 1.6 1.5c0 .9-.7 1.6-1.5 1.6zm-8-32.9c-.9 0-1.5-.7-1.5-1.5s.7-1.5 1.5-1.5c.9 0 1.5.7 1.5 1.5 0 .8-.6 1.5-1.5 1.5zm0 8.2c-.9 0-1.5-.7-1.5-1.5s.7-1.5 1.5-1.5c.9 0 1.5.7 1.5 1.5 0 .9-.6 1.5-1.5 1.5 0 .1 0 .1 0 0zm0 8.3c-.9 0-1.5-.7-1.5-1.5s.6-1.6 1.5-1.6 1.5.7 1.5 1.5c0 .9-.6 1.6-1.5 1.6zm0 8.2c-.9 0-1.5-.7-1.5-1.5s.7-1.5 1.5-1.5c.9 0 1.5.7 1.5 1.5 0 .8-.6 1.5-1.5 1.5zm0 8.2c-.9 0-1.5-.7-1.5-1.5s.7-1.5 1.5-1.5c.9 0 1.5.7 1.5 1.5 0 .8-.6 1.5-1.5 1.5zm-8-32.9c-.9 0-1.5-.7-1.5-1.5s.7-1.5 1.5-1.5c.9 0 1.5.7 1.5 1.5.1.8-.6 1.5-1.5 1.5zm0 8.2c-.9 0-1.5-.7-1.5-1.5s.7-1.5 1.5-1.5c.9 0 1.5.7 1.5 1.5.1.9-.6 1.5-1.5 1.5 0 .1 0 .1 0 0zm0 8.3c-.9 0-1.5-.7-1.5-1.5s.7-1.6 1.5-1.6c.9 0 1.5.7 1.5 1.5.1.9-.6 1.6-1.5 1.6zm0 8.2c-.9 0-1.5-.7-1.5-1.5s.7-1.5 1.5-1.5c.9 0 1.5.7 1.5 1.5.1.8-.6 1.5-1.5 1.5zm0 8.2c-.9 0-1.5-.7-1.5-1.5s.7-1.5 1.5-1.5c.9 0 1.5.7 1.5 1.5.1.8-.6 1.5-1.5 1.5z"/><path d="m192 172.6c-.9 0-1.5-.7-1.6-1.5s.7-1.5 1.5-1.6 1.5.7 1.6 1.5c0 .9-.7 1.6-1.5 1.6zm0 8.2c-.9 0-1.5-.7-1.6-1.5s.7-1.5 1.5-1.6 1.5.7 1.6 1.5c0 .9-.7 1.6-1.5 1.6zm0 8.3c-.9 0-1.5-.7-1.6-1.5s.7-1.5 1.5-1.6 1.5.7 1.6 1.5c0 .9-.7 1.5-1.5 1.6zm0 8.2c-.9 0-1.5-.7-1.6-1.5s.7-1.5 1.5-1.6 1.5.7 1.6 1.5c0 .9-.7 1.6-1.5 1.6zm0 8.2c-.9 0-1.5-.7-1.6-1.5s.7-1.5 1.5-1.6 1.5.7 1.6 1.5c0 .9-.7 1.6-1.5 1.6zm-8-32.9c-.9 0-1.5-.7-1.5-1.5s.7-1.5 1.5-1.5c.9 0 1.5.7 1.5 1.5 0 .8-.6 1.5-1.5 1.5zm0 8.2c-.9 0-1.5-.7-1.5-1.5s.7-1.5 1.5-1.5c.9 0 1.5.7 1.5 1.5 0 .8-.6 1.5-1.5 1.5zm0 8.2c-.9 0-1.5-.7-1.5-1.5s.6-1.5 1.5-1.5 1.5.7 1.5 1.5c0 .9-.6 1.5-1.5 1.5 0 .1 0 .1 0 0zm0 8.3c-.9 0-1.5-.7-1.5-1.5s.7-1.5 1.5-1.5c.9 0 1.5.7 1.5 1.5 0 .8-.6 1.5-1.5 1.5zm0 8.2c-.9 0-1.5-.7-1.5-1.5s.7-1.5 1.5-1.5c.9 0 1.5.7 1.5 1.5 0 .8-.6 1.5-1.5 1.5zm-8-32.9c-.9 0-1.5-.7-1.5-1.5s.7-1.5 1.5-1.5c.9 0 1.5.7 1.5 1.5.1.8-.6 1.5-1.5 1.5zm0 8.2c-.9 0-1.5-.7-1.5-1.5s.7-1.5 1.5-1.5c.9 0 1.5.7 1.5 1.5.1.8-.6 1.5-1.5 1.5zm0 8.2c-.9 0-1.5-.7-1.5-1.5s.7-1.5 1.5-1.5c.9 0 1.5.7 1.5 1.5.1.9-.6 1.5-1.5 1.5 0 .1 0 .1 0 0zm0 8.3c-.9 0-1.5-.7-1.5-1.5s.7-1.5 1.5-1.5c.9 0 1.5.7 1.5 1.5.1.8-.6 1.5-1.5 1.5zm0 8.2c-.9 0-1.5-.7-1.5-1.5s.7-1.5 1.5-1.5c.9 0 1.5.7 1.5 1.5.1.8-.6 1.5-1.5 1.5zm16 8.1c-.9 0-1.5-.7-1.6-1.5s.7-1.5 1.5-1.6 1.5.7 1.6 1.5c0 .9-.7 1.6-1.5 1.6zm0 8.2c-.9 0-1.5-.7-1.6-1.5s.7-1.5 1.5-1.6 1.5.7 1.6 1.5c0 1-.7 1.6-1.5 1.6 0 .1 0 .1 0 0zm0 8.3c-.9 0-1.5-.7-1.6-1.5s.7-1.5 1.5-1.6 1.5.7 1.6 1.5c0 .9-.7 1.6-1.5 1.6zm0 8.2c-.9 0-1.5-.7-1.6-1.5s.7-1.5 1.5-1.6 1.5.7 1.6 1.5c0 .9-.7 1.6-1.5 1.6zm0 8.2c-.9 0-1.5-.7-1.6-1.5s.7-1.5 1.5-1.6 1.5.7 1.6 1.5c0 .9-.7 1.6-1.5 1.6zm-8-32.9c-.9 0-1.5-.7-1.5-1.5s.7-1.5 1.5-1.5c.9 0 1.5.7 1.5 1.5 0 .8-.6 1.5-1.5 1.5zm0 8.2c-.9 0-1.5-.7-1.5-1.5s.7-1.5 1.5-1.5c.9 0 1.5.7 1.5 1.5 0 .9-.6 1.5-1.5 1.5 0 .1 0 .1 0 0zm0 8.3c-.9 0-1.5-.7-1.5-1.5s.6-1.6 1.5-1.6 1.5.7 1.5 1.5c0 .9-.6 1.6-1.5 1.6zm0 8.2c-.9 0-1.5-.7-1.5-1.5s.7-1.5 1.5-1.5c.9 0 1.5.7 1.5 1.5 0 .8-.6 1.5-1.5 1.5zm0 8.2c-.9 0-1.5-.7-1.5-1.5s.7-1.5 1.5-1.5c.9 0 1.5.7 1.5 1.5 0 .8-.6 1.5-1.5 1.5zm-8-32.9c-.9 0-1.5-.7-1.5-1.5s.7-1.5 1.5-1.5c.9 0 1.5.7 1.5 1.5.1.8-.6 1.5-1.5 1.5zm0 8.2c-.9 0-1.5-.7-1.5-1.5s.7-1.5 1.5-1.5c.9 0 1.5.7 1.5 1.5.1.9-.6 1.5-1.5 1.5 0 .1 0 .1 0 0zm0 8.3c-.9 0-1.5-.7-1.5-1.5s.7-1.6 1.5-1.6c.9 0 1.5.7 1.5 1.5.1.9-.6 1.6-1.5 1.6zm0 8.2c-.9 0-1.5-.7-1.5-1.5s.7-1.5 1.5-1.5c.9 0 1.5.7 1.5 1.5.1.8-.6 1.5-1.5 1.5zm0 8.2c-.9 0-1.5-.7-1.5-1.5s.7-1.5 1.5-1.5c.9 0 1.5.7 1.5 1.5.1.8-.6 1.5-1.5 1.5z"/></g></svg>