<svg enable-background="new 0 0 198.3 45.4" viewBox="0 0 198.3 45.4" xmlns="http://www.w3.org/2000/svg"><g fill="#fff"><path d="m69.8 6.1h-7.3l-9.4 26.9h6.1l2-6.1h9.7l2 6.1h6.1zm-7.1 16.3 3.3-10.2h.2l3.3 10.2z"/><path d="m82.2 40.5v-27.7h5.5v3.4h.2c.2-.5.6-1.1 1.1-1.7s1.1-1 1.8-1.4c.8-.4 1.7-.6 2.8-.6 1.5 0 2.8.4 4.1 1.1 1.2.8 2.2 1.9 3 3.5.7 1.5 1.1 3.5 1.1 5.8 0 2.2-.4 4.1-1.1 5.7-.7 1.5-1.7 2.7-2.9 3.5s-2.6 1.2-4.2 1.2c-1.1 0-2-.2-2.8-.5-.8-.4-1.4-.8-1.9-1.4-.5-.5-.8-1.1-1.1-1.7h-.2v10.8zm5.4-17.6c0 1.2.2 2.2.5 3.1s.8 1.6 1.4 2.1 1.4.7 2.3.7 1.7-.3 2.3-.8 1.1-1.2 1.4-2.1.5-1.9.5-3.1-.2-2.2-.5-3.1-.8-1.6-1.4-2.1-1.4-.7-2.3-.7-1.7.2-2.3.7-1.1 1.2-1.4 2c-.3 1-.5 2.1-.5 3.3z"/><path d="m105.5 40.5v-27.7h5.5v3.4h.2c.2-.5.6-1.1 1.1-1.7s1.1-1 1.8-1.4c.8-.4 1.7-.6 2.8-.6 1.5 0 2.8.4 4.1 1.1 1.2.8 2.2 1.9 3 3.5.7 1.5 1.1 3.5 1.1 5.8 0 2.2-.4 4.1-1.1 5.7-.7 1.5-1.7 2.7-2.9 3.5s-2.6 1.2-4.2 1.2c-1.1 0-2-.2-2.8-.5-.8-.4-1.4-.8-1.9-1.4-.5-.5-.8-1.1-1.1-1.7h-.2v10.8zm5.5-17.6c0 1.2.2 2.2.5 3.1s.8 1.6 1.4 2.1 1.4.7 2.3.7 1.7-.3 2.3-.8 1.1-1.2 1.4-2.1.5-1.9.5-3.1-.2-2.2-.5-3.1-.8-1.6-1.4-2.1-1.4-.7-2.3-.7-1.7.2-2.3.7-1.1 1.2-1.4 2c-.3 1-.5 2.1-.5 3.3z"/><path d="m147 12.8-7 20.2h-6.3l-7.1-20.2h5.9l4.2 14.4h.2l4.2-14.4z"/><path d="m152.7 10.2c-.8 0-1.5-.3-2.1-.8-.6-.6-.9-1.2-.9-2s.3-1.4.9-2 1.3-.8 2.1-.8 1.6.3 2.1.8c.6.6.9 1.2.9 2s-.3 1.4-.9 2c-.5.5-1.2.8-2.1.8zm-2.8 22.8v-20.2h5.6v20.2z"/><path d="m165.6 6.1v26.9h-5.6v-26.9z"/><path d="m175.6 6.1v26.9h-5.6v-26.9z"/><path d="m185.8 33.4c-1.3 0-2.4-.2-3.4-.7s-1.8-1.1-2.4-2-.9-2-.9-3.3c0-1.1.2-2.1.6-2.8.4-.8 1-1.4 1.7-1.8s1.5-.8 2.4-1.1c.9-.2 1.9-.4 2.9-.5 1.2-.1 2.1-.2 2.8-.3s1.2-.3 1.6-.5c.3-.2.5-.5.5-1v-.1c0-.8-.3-1.5-.8-1.9-.5-.5-1.3-.7-2.2-.7-1 0-1.8.2-2.4.7-.6.4-1 1-1.2 1.7l-5.2-.4c.3-1.2.8-2.3 1.5-3.2.8-.9 1.8-1.6 3-2.1s2.6-.7 4.2-.7c1.1 0 2.2.1 3.2.4s1.9.7 2.7 1.2c.8.6 1.4 1.3 1.9 2.1.5.9.7 1.9.7 3.1v13.5h-5.3v-2.8h-.2c-.3.6-.8 1.2-1.3 1.7s-1.2.8-2 1.1c-.5.2-1.4.4-2.4.4zm1.6-3.9c.8 0 1.5-.2 2.2-.5.6-.3 1.1-.8 1.5-1.3.4-.6.5-1.2.5-1.9v-2.1c-.2.1-.4.2-.7.3s-.6.2-1 .2c-.4.1-.8.1-1.1.2-.4.1-.7.1-1 .2-.7.1-1.2.2-1.7.5-.5.2-.9.5-1.1.8-.3.4-.4.8-.4 1.3 0 .8.3 1.3.8 1.7s1.2.6 2 .6z"/><path d="m46.8 19.6-8.7-15.2c-1.1-1.9-3.1-3-5.2-3h-17.5c-2.2 0-4.1 1.1-5.2 3l-8.9 15.2c-1.1 1.9-1.1 4.1 0 6l8.7 15.2c1.1 1.9 3 3 5.2 3h17.5c2.1 0 4.1-1.1 5.2-3l8.7-15.2c1.3-1.9 1.3-4.1.2-6zm-34.6 5.8c-.1-.1-.2-.2-.2-.4v-3.3c0-.2.1-.3.2-.4s.2-.2.4-.2h5.7l-2.5 4.3h-3.2c-.2.2-.3.1-.4 0zm4 6.2-1.8 1.3c-.1.1-.2.1-.3.1-.1-.1-.1-.2-.1-.4l.2-2.1c0-.2.1-.2.2-.3s.2-.1.3 0l1.4.8c.1.1.2.2.2.3.1.2.1.3-.1.3zm.9-1.1c-.2.1-.3 0-.4-.1l-1.4-.8c-.1-.1-.2-.2-.2-.3s0-.3.1-.4l6.5-11.5c.1-.1.2-.2.3-.2.2 0 .3 0 .4.1l1.4.8.3.3c0 .2 0 .3-.1.4l-6.6 11.4c-.1.2-.2.3-.3.3zm4.6-4.9 2.5-4.3h1.4l2 4.3zm8.1 1.3c-.2-.1-.9-1.4-2-3.7-.7-1.6-1.4-3.2-2.1-4.8l-.5-1.2c-.7-1.5-1.2-2.6-1.4-3.3-.5-1.2-.5-1.9-.3-2.1.2-.1.5.2.9.9.3.4.8 1.2 1.4 2.4.6 1 1 1.7 1.3 2.1.8 1.2 2.2 3.7 4.2 7.6l.3.6c.2.3.2.5-.1.9-.2.2-.4.4-.6.5l-.1.1c-.2.1-.3.1-.4.2-.2-.1-.4-.1-.6-.2zm1.9 2.9-.9-1.3c-.1-.2-.1-.3-.1-.4.1-.2.2-.2.3-.3l.8-.4c.2-.1.3-.1.5 0s.3.2.4.3l.7 1.3c.1.2.1.3 0 .5 0 .2-.2.3-.3.4l-.6.3c-.2.1-.3.1-.5.1-.1-.2-.2-.3-.3-.5zm3.2 3.5c-.1-.1-.2-.2-.3-.3s-.3-.2-.5-.3c-.3-.1-.5-.2-.7-.3s-.5-.3-.6-.5c-.2-.3-.3-.7-.2-.9 0-.2.2-.3.4-.5.6-.3 1-.4 1.4-.1.3.2.5.5.6 1.1.1.4.1.8.1 1.3zm1.2-8.2c0 .1 0 .2-.2.4-.1.1-.2.2-.4.2h-2.9c0-.2-.1-.4-.2-.5l-1-1.9c-.4-.8-.8-1.5-1-2h5.1c.2 0 .3.1.4.2s.2.2.2.4z"/></g></svg>